<?xml version="1.0" encoding="UTF-8"?>
<svg version="1.1" xmlns="http://www.w3.org/2000/svg" width="980" height="980">
<path d="M0 0 C4.43604991 2.95497004 6.90550461 6.61399271 9.5625 11.125 C10.44551197 12.5795875 11.33102329 14.03266007 12.21875 15.484375 C12.90517578 16.60875977 12.90517578 16.60875977 13.60546875 17.75585938 C15.84031966 21.35227912 18.1978447 24.86308014 20.5625 28.375 C26.4044439 37.07259678 32.14069821 45.83731533 37.86157227 54.61474609 C39.22098484 56.69888875 40.58283245 58.78144542 41.94726562 60.86230469 C43.38214797 63.05558583 44.80728064 65.25349748 46.22460938 67.45800781 C46.93939453 68.55725586 47.65417969 69.65650391 48.390625 70.7890625 C49.03547852 71.7888916 49.68033203 72.7887207 50.34472656 73.81884766 C50.8909668 74.53862793 51.43720703 75.2584082 52 76 C52.66 76 53.32 76 54 76 C55.54742113 73.73743604 56.97197544 71.47563847 58.375 69.125 C59.29204475 67.62493892 60.21139691 66.12628651 61.1328125 64.62890625 C61.61008789 63.85305176 62.08736328 63.07719727 62.57910156 62.27783203 C64.73280737 58.82524179 66.98180575 55.44062737 69.25 52.0625 C69.72179687 51.35963867 70.19359375 50.65677734 70.6796875 49.93261719 C71.77553151 48.30049451 72.87157757 46.66850747 73.96777344 45.03662109 C76.46997659 41.29774521 78.95767646 37.54935806 81.4453125 33.80078125 C82.92684368 31.57049559 84.40862536 29.34037657 85.89050293 27.11032104 C86.87114072 25.63369954 87.85105379 24.15659646 88.8302002 22.6789856 C103.30680424 0.83821484 103.30680424 0.83821484 108 -1 C112.62144627 -1 114.46003226 -0.48252436 117.9375 2.625 C120.39992718 6.6544263 120.4966905 8.34352654 120 13 C118.84577829 15.68442751 117.29504259 18.02133659 115.65625 20.43359375 C115.20600464 21.12368027 114.75575928 21.81376678 114.29187012 22.52476501 C113.34561393 23.97158073 112.39241 25.41387418 111.43261719 26.85174561 C110.06123629 28.90817427 108.71052328 30.9764399 107.3671875 33.05126953 C104.76375991 37.06759129 102.13337605 41.06577589 99.5 45.0625 C98.61833693 46.40419657 97.73682644 47.74599343 96.85546875 49.08789062 C92.52346002 55.67852578 88.1696717 62.25406821 83.7890625 68.8125 C79.77293587 74.82543415 75.80495493 80.86779798 71.875 86.9375 C71.30007813 87.82373047 70.72515625 88.70996094 70.1328125 89.62304688 C68.75436505 91.74815336 67.37675365 93.87379597 66 96 C70.19606045 104.05635658 74.90988107 111.60731209 80 119.125 C80.7772353 120.28129237 81.55391242 121.4379601 82.33007812 122.5949707 C83.99531247 125.07627807 85.66279635 127.55605016 87.33203125 130.03466797 C91.59518739 136.36755717 95.83941392 142.7130892 100.07910156 149.06170654 C101.45418305 151.11895367 102.83240455 153.17406861 104.2109375 155.22900391 C109.12591842 162.57314172 113.92192576 169.97670434 118.56689453 177.49504089 C121.97239831 183.00271027 125.55126893 188.38265542 129.16796875 193.75390625 C132.66183832 198.96998086 136.07691775 204.2373253 139.5 209.5 C144.05759965 216.5041205 148.63975733 223.48877682 153.29296875 230.4296875 C156.74362544 235.58859008 160.12419318 240.7918911 163.5 246 C167.17487278 251.66877671 170.86269931 257.32633462 174.625 262.9375 C179.40442273 270.07119029 184.1098217 277.25310192 188.8125 284.4375 C189.21722534 285.05578674 189.62195068 285.67407349 190.03894043 286.31109619 C191.72485561 288.88672164 193.41071947 291.46238066 195.09646606 294.03811646 C199.84989585 301.30023563 204.61215807 308.5565517 209.375 315.8125 C210.25692152 317.15616586 211.13883882 318.4998345 212.02075195 319.84350586 C213.79471455 322.54625321 215.56872958 325.24896614 217.34277344 327.95166016 C221.29178185 333.96792863 225.24007118 339.98466899 229.18841553 346.00137329 C230.50334037 348.00509014 231.81831335 350.0087754 233.13330078 352.01245117 C237.03432878 357.95658844 240.93516036 363.90085399 244.83477783 369.84591675 C246.97302693 373.10571502 249.11146533 376.36538907 251.25 379.625 C251.67535034 380.27333801 252.10070068 380.92167603 252.53894043 381.58966064 C260.46615215 393.67162131 268.40957438 405.74288709 276.35482788 417.81298828 C283.76616744 429.0727776 291.16244252 440.34213434 298.52441406 451.63427734 C299.7342099 453.48846943 300.94618639 455.34124108 302.16064453 457.19238281 C303.49142064 459.22369755 304.81432322 461.26017777 306.13232422 463.29980469 C307.19410889 464.92644043 307.19410889 464.92644043 308.27734375 466.5859375 C308.91792725 467.57384277 309.55851074 468.56174805 310.21850586 469.57958984 C312.55405954 472.75276775 314.21806583 473.86242727 318.10693359 474.54663086 C319.98372803 474.75364624 319.98372803 474.75364624 321.8984375 474.96484375 C323.27866629 475.12677887 324.65887398 475.28889389 326.0390625 475.45117188 C328.20662087 475.69623648 330.37452598 475.93744817 332.54296875 476.17456055 C334.64192034 476.40706054 336.73880783 476.65401965 338.8359375 476.90234375 C340.08938965 477.04148193 341.3428418 477.18062012 342.63427734 477.32397461 C346.91242571 478.18326612 349.69293622 479.73800738 352.8125 482.75 C354.54568109 486.03392206 354.44932633 488.34119985 354 492 C351.83226829 495.48385453 349.87557409 497.6483077 346 499 C343.28221691 498.90499494 340.73715038 498.68560288 338.05078125 498.3359375 C336.81561516 498.19060074 336.81561516 498.19060074 335.55549622 498.04232788 C333.71088314 497.82415971 331.86690916 497.60054178 330.02349854 497.37243652 C326.84049544 496.98035212 323.65579566 496.60589119 320.47021484 496.23535156 C315.64074659 495.67341701 310.81178183 495.1074437 305.9831543 494.53833008 C266.27812114 489.87409266 226.5864834 486.32273133 186.6875 483.8125 C186.00836422 483.76966007 185.32922844 483.72682014 184.62951279 483.68268204 C159.32648284 482.08978669 134.03505892 480.96282399 108.6875 480.4375 C107.69242432 480.41665344 106.69734863 480.39580688 105.67211914 480.37432861 C0.27871345 478.21694682 -105.83424317 483.19841024 -210.30395508 497.61499023 C-211.44428444 497.76786499 -211.44428444 497.76786499 -212.60765076 497.92382812 C-214.60573682 498.1923099 -216.60250035 498.47058572 -218.59912109 498.74975586 C-223.45930871 499.10737914 -226.76850069 498.84836619 -230.8125 496.0625 C-233 494 -233 494 -234 492 C-234.11920823 487.58929561 -233.84699987 484.06558048 -231.0625 480.5625 C-226.14326093 478.05268415 -220.86733903 477.19200931 -215.375 476.82421875 C-211.54138045 476.43267529 -208.88175547 476.07894185 -206.36132812 472.99487305 C-205.86052734 472.13418213 -205.35972656 471.27349121 -204.84375 470.38671875 C-202.0085376 465.67512235 -199.1010926 461.04254319 -196.07421875 456.453125 C-195.18539752 455.09905636 -194.29672793 453.74488817 -193.40820312 452.390625 C-192.95968994 451.70806641 -192.51117676 451.02550781 -192.04907227 450.32226562 C-190.69904612 448.26757279 -189.35040802 446.21197427 -188.00195312 444.15625 C-183.16679672 436.78991572 -178.30270934 429.443843 -173.40863037 422.11653137 C-170.38093439 417.5803379 -167.39433591 413.02005411 -164.4375 408.4375 C-157.92552783 398.38339105 -151.33767376 388.3795905 -144.75 378.375 C-133.60139375 361.44184657 -122.46284473 344.50227487 -111.42578125 327.49609375 C-110.85569336 326.61775879 -110.28560547 325.73942383 -109.69824219 324.83447266 C-108.67573816 323.2579851 -107.654108 321.68093 -106.63378906 320.10302734 C-103.53832993 315.32702309 -100.39543086 310.58426671 -97.234375 305.8515625 C-92.1783616 298.2814942 -87.17654696 290.67681265 -82.1875 283.0625 C-81.27610215 281.67248638 -80.36464229 280.28251342 -79.453125 278.89257812 C-77.56926157 276.0198494 -75.6856584 273.14695029 -73.80224609 270.27392578 C-69.80412439 264.17549759 -65.80272059 258.07922374 -61.80142212 251.98287964 C-59.61746683 248.65535016 -57.43374579 245.32766697 -55.25 242 C-54.37500111 240.66666594 -53.50000111 239.3333326 -52.625 238 C-52.191875 237.34 -51.75875 236.68 -51.3125 236 C-47.375 230 -47.375 230 -46.06254578 228.00007629 C-45.18738519 226.6664939 -44.3122326 225.33290625 -43.43708801 223.99931335 C-41.25211051 220.66974764 -39.06699488 217.34027273 -36.8815918 214.01098633 C-32.91388268 207.96620157 -28.94724399 201.92072694 -24.985672 195.87191772 C-22.76195441 192.47667063 -20.53736963 189.08199226 -18.3125 185.6875 C-17.87819672 185.02476074 -17.44389343 184.36202148 -16.99642944 183.67919922 C-10.43989053 173.67744513 -3.81732945 163.72163527 2.83627319 153.78427124 C7.37197325 147.00529643 11.82896072 140.19805963 16.07666016 133.23510742 C18.79696203 128.81738853 21.66062899 124.50440885 24.56640625 120.20703125 C24.97482758 119.60148407 25.3832489 118.99593689 25.80404663 118.37203979 C27.86631335 115.31576021 29.93698908 112.26577125 32.02148438 109.22460938 C32.78678907 108.0939738 33.55177687 106.96312364 34.31640625 105.83203125 C35.00162354 104.82889893 35.68684082 103.8257666 36.39282227 102.79223633 C37.99693406 100.00532661 38.86315459 98.20475853 39 95 C38.0161404 92.59303143 38.0161404 92.59303143 36.34375 90.2890625 C35.43919067 88.93361328 35.43919067 88.93361328 34.51635742 87.55078125 C33.5182605 86.10251953 33.5182605 86.10251953 32.5 84.625 C31.11023904 82.55498153 29.72092897 80.48466027 28.33203125 78.4140625 C27.25429443 76.82319824 27.25429443 76.82319824 26.15478516 75.20019531 C22.7703031 70.17370644 19.48310346 65.0849966 16.1875 60 C12.50396039 54.34350637 8.81377074 48.6922675 5.05932617 43.08251953 C4.27961692 41.91721505 3.50236751 40.7502603 2.7277832 39.58154297 C0.35964266 36.01023024 -2.05579485 32.47681807 -4.5 28.95703125 C-5.7088707 27.18005295 -6.91720802 25.40271167 -8.125 23.625 C-8.70652832 22.80427002 -9.28805664 21.98354004 -9.88720703 21.13793945 C-13.13585565 16.30411867 -14.64761026 12.78971294 -14.43237305 6.92333984 C-13.676442 3.56070584 -11.67419814 1.99010095 -9 0 C-5.39965901 -1.20011366 -3.65462165 -0.95020163 0 0 Z M52 116 C50.54800113 117.92540769 49.23757289 119.84841579 47.9375 121.875 C47.51339844 122.52339844 47.08929688 123.17179687 46.65234375 123.83984375 C45.66869918 125.34536642 44.68833429 126.85303469 43.71044922 128.36230469 C40.69424629 133.01361162 37.65407213 137.64927213 34.61917114 142.28839111 C33.49264474 144.01124879 32.36715016 145.73477634 31.24194336 147.45849609 C27.52125048 153.15701622 23.79021154 158.84743556 20 164.5 C14.94012881 172.05125228 9.97721197 179.66546067 5.00732422 187.27612305 C-1.66382445 197.49144475 -8.35637639 207.69262414 -15.05322266 217.89111328 C-19.34945978 224.43431628 -23.64282269 230.97934573 -27.92578125 237.53125 C-36.11252689 250.05224675 -44.34247311 262.54149451 -52.65563965 274.97897339 C-57.3910003 282.06515849 -62.08895171 289.17096506 -66.70068359 296.33813477 C-70.97465134 302.97694694 -75.29695768 309.58387192 -79.625 316.1875 C-80.02063141 316.79121429 -80.41626282 317.39492859 -80.82388306 318.01693726 C-88.61746732 329.90731183 -96.4342622 341.78240769 -104.25091553 353.65762329 C-111.44115155 364.58170442 -118.61622363 375.51534116 -125.76806641 386.46459961 C-131.16918509 394.73266589 -136.58166665 402.99320946 -142 411.25 C-142.42815002 411.90253754 -142.85630005 412.55507507 -143.29742432 413.22738647 C-148.78680905 421.592952 -154.28465759 429.95290362 -159.7890625 438.30859375 C-160.93750712 440.05240417 -162.08594466 441.79621925 -163.234375 443.54003906 C-165.45976472 446.91906903 -167.68653648 450.29718274 -169.9140625 453.67480469 C-170.93494277 455.22457846 -171.95577833 456.77438168 -172.9765625 458.32421875 C-173.67357773 459.37989296 -173.67357773 459.37989296 -174.38467407 460.45689392 C-178.90305808 466.33300959 -178.90305808 466.33300959 -181 473 C-170.03872886 472.05444313 -159.07819588 471.10114818 -148.12030029 470.11715698 C-145.86554605 469.91477986 -143.61070189 469.71340219 -141.35577393 469.51296997 C-135.37045269 468.97953945 -129.38764594 468.42762445 -123.40673828 467.84667969 C-112.53461495 466.80831879 -101.77532801 465.85043304 -90.84765625 465.88671875 C-76.21588317 466.40194682 -76.21588317 466.40194682 -63.36035156 460.76464844 C-58.63551559 454.88397797 -55.91374449 448.30039292 -53.29638672 441.28125 C-51.37587834 436.42030223 -48.76012906 432.08626106 -46.0625 427.625 C-45.07937447 425.92229764 -44.10161177 424.21648892 -43.12890625 422.5078125 C-42.62762207 421.62899414 -42.12633789 420.75017578 -41.60986328 419.84472656 C-38.5378165 414.41623261 -35.52169742 408.95662782 -32.5 403.5 C-27.55846613 394.57650193 -22.56208953 385.68911531 -17.48388672 376.84277344 C-11.84206616 367.00391998 -6.31750354 357.09974548 -0.78662109 347.19824219 C7.13896463 333.01059898 15.08124497 318.83283721 23.09033203 304.69213867 C25.9793172 299.58773624 28.85522458 294.47638905 31.71484375 289.35546875 C32.33617187 288.24300781 32.9575 287.13054687 33.59765625 285.984375 C34.78526728 283.85625673 35.97156161 281.72740288 37.15625 279.59765625 C38.75928394 276.72508007 40.37724669 273.86147336 42 271 C42.52867676 270.04947754 43.05735352 269.09895508 43.60205078 268.11962891 C44.11622559 267.22034668 44.63040039 266.32106445 45.16015625 265.39453125 C45.61140869 264.5950708 46.06266113 263.79561035 46.52758789 262.97192383 C48.19801711 260.73480614 49.39988821 259.96059253 52 259 C55.4375 258.5625 55.4375 258.5625 59 259 C62.79068044 262.25877193 65.17352555 265.64567646 67.53125 270.0234375 C67.84385773 270.59734222 68.15646545 271.17124695 68.47854614 271.76254272 C69.14652813 272.99111084 69.81058853 274.22181807 70.4710083 275.45446777 C71.87529485 278.07545838 73.29860316 280.68595783 74.72061157 283.29736328 C75.44409338 284.62656737 76.16656481 285.95632189 76.88803101 287.28662109 C80.06729548 293.1456902 83.33006204 298.95520694 86.625 304.75 C91.10902295 312.65246689 95.56600949 320.56934481 100 328.5 C105.01255313 337.46313639 110.05189422 346.41059192 115.11206055 355.34692383 C119.03563207 362.28079626 122.92789943 369.23173618 126.8125 376.1875 C131.44852852 384.48709025 136.13828966 392.75375615 140.87017822 400.99905396 C146.104732 410.12049363 151.28974015 419.26520101 156.3581543 428.48022461 C157.72794379 430.97043361 159.11126238 433.4522703 160.50708008 435.92797852 C163.71218928 441.63887824 166.74301155 447.25638569 168.95751953 453.43530273 C170.58373895 456.74990152 172.12159423 459.65893995 175 462 C178.25088546 463.0319561 181.45416229 463.11897659 184.84765625 463.23828125 C186.92932618 463.36489407 189.01094817 463.49229686 191.0925293 463.62036133 C192.76694595 463.70829453 192.76694595 463.70829453 194.47518921 463.79800415 C200.70850626 464.155216 206.92651668 464.70406047 213.1484375 465.21875 C215.83052612 465.43358338 218.51290009 465.6447212 221.1953125 465.85546875 C222.55631671 465.96270753 223.91731931 466.0699667 225.27832031 466.17724609 C225.95421204 466.23048035 226.63010376 466.2837146 227.32647705 466.33856201 C230.72811415 466.60663489 234.12968116 466.87559377 237.53125 467.14453125 C238.88079819 467.25122261 240.23034653 467.35791207 241.57989502 467.46459961 C242.24321083 467.51703827 242.90652664 467.56947693 243.58994293 467.62350464 C245.56733956 467.77978019 247.54474761 467.93591129 249.52215576 468.09204102 C261.68214861 469.05248855 273.84124078 470.024071 286 471 C283.83084303 466.48051544 281.63900359 462.20516044 278.671875 458.14453125 C275.04525446 453.08518362 271.63243711 447.91235732 268.25 442.6875 C266.92217664 440.64433519 265.59403675 438.60137606 264.265625 436.55859375 C263.57017578 435.48851074 262.87472656 434.41842773 262.15820312 433.31591797 C258.45064128 427.61952601 254.72587434 421.93442254 251 416.25 C250.60890045 415.65329498 250.2178009 415.05658997 249.81484985 414.44180298 C247.32186724 410.638599 244.82800721 406.83597112 242.33380127 403.03356934 C240.9552107 400.93171236 239.57695241 398.82963777 238.19873047 396.72753906 C235.27968967 392.27579344 232.35913502 387.82504346 229.4375 383.375 C228.70978897 382.26650696 228.70978897 382.26650696 227.96737671 381.13562012 C221.46025387 371.22695119 214.90770653 361.35021245 208.3125 351.5 C202.77069394 343.22110099 197.33998706 334.88826445 192.05639648 326.44238281 C187.89965006 319.80383355 183.58026038 313.28428794 179.20458984 306.78857422 C172.83606315 297.33258991 166.57169113 287.81390253 160.37744141 278.24291992 C156.05059597 271.57553674 151.64573297 264.96214197 147.22314453 258.3581543 C140.60858726 248.48084212 134.11035436 238.54170907 127.75708008 228.4934082 C123.46385378 221.70802554 119.06067315 215.00908071 114.57763672 208.34814453 C111.38058554 203.58967374 108.19842794 198.82124003 105.01623535 194.05282593 C103.8475317 192.30246674 102.67725432 190.55316795 101.50683594 188.80395508 C97.48894357 182.79097659 93.53566417 176.74337834 89.66918945 170.63183594 C86.87808703 166.23106307 84.03392737 161.86512199 81.1875 157.5 C80.56020996 156.53747314 79.93291992 155.57494629 79.28662109 154.58325195 C73.1662325 145.21453318 66.95757076 135.90527589 60.72729492 126.609375 C59.99486572 125.51496094 59.26243652 124.42054688 58.5078125 123.29296875 C57.85441895 122.3186792 57.20102539 121.34438965 56.52783203 120.34057617 C55 118 55 118 54 116 C53.34 116 52.68 116 52 116 Z M54 290 C47.02349988 302.14592789 40.11754695 314.32908998 33.28466797 326.55639648 C29.37610598 333.5488321 25.44699812 340.52919382 21.5 347.5 C16.38176866 356.54078156 11.29870162 365.60079239 6.22827148 374.66845703 C2.36005924 381.58229062 -1.53168599 388.48235182 -5.4375 395.375 C-10.25087908 403.87237434 -15.01264087 412.39760362 -19.75 420.9375 C-28.70992722 437.08604749 -28.70992722 437.08604749 -32.0625 443.0625 C-32.41207764 443.68584229 -32.76165527 444.30918457 -33.12182617 444.95141602 C-35.64506422 449.4261874 -38.28002094 453.82442372 -41.00390625 458.1796875 C-42.16001292 459.9465778 -42.16001292 459.9465778 -42 462 C-41.44372925 461.97494385 -40.8874585 461.9498877 -40.31433105 461.92407227 C23.36888121 459.09741064 87.2879675 458.86109605 151 461 C149.70718405 456.78098838 148.10151182 453.09241717 145.9453125 449.24609375 C145.336875 448.15554688 144.7284375 447.065 144.1015625 445.94140625 C143.44286224 444.77335069 142.78400423 443.60538409 142.125 442.4375 C141.44235025 441.21895054 140.76006297 440.00019794 140.078125 438.78125 C135.61964839 430.82397064 131.1025104 422.9003548 126.55883789 414.99145508 C121.84080839 406.76371974 117.24598136 398.46889965 112.64990234 390.17260742 C106.95812211 379.90506798 101.18727904 369.68352572 95.39892578 359.47021484 C93.44782288 356.02496891 91.50351214 352.57593902 89.5625 349.125 C89.21477539 348.50713623 88.86705078 347.88927246 88.50878906 347.25268555 C86.28538255 343.29802763 84.07221633 339.33775962 81.86328125 335.375 C73.37974998 320.16835163 64.7395867 305.06054359 56 290 C55.34 290 54.68 290 54 290 Z " fill="#000000" transform="translate(430,241)"/>
</svg>
