<?xml version="1.0" encoding="UTF-8"?>
<svg version="1.1" xmlns="http://www.w3.org/2000/svg" width="512" height="512">
<path d="M0 0 C13.60381927 7.88157783 23.30301358 23.63505401 32.640625 36.0546875 C34.95292514 38.94123436 37.33877635 41.44258294 40 44 C41.64706923 42.06353917 43.29287238 40.12603342 44.9375 38.1875 C45.43677002 37.5994458 45.93604004 37.0113916 46.45043945 36.40551758 C49.5820814 32.70666116 52.65194266 28.96602592 55.6875 25.1875 C66.43270748 12.109703 66.43270748 12.109703 72.0625 10.3125 C77.66211255 9.86808631 80.73656375 11.09051675 84.8984375 14.6015625 C89.955725 19.45895722 94.31940173 24.90283663 98.68701172 30.375 C100.10635011 32.1316226 101.55264658 33.86341956 103.00390625 35.59375 C115.61350957 50.70873806 126.35293734 67.06920829 136.65283203 83.82226562 C137.92505411 85.8788479 139.22401022 87.91618169 140.52734375 89.953125 C144.17308449 95.78445602 147.1895965 100.86575846 146.52734375 107.94140625 C145.71051902 111.13004799 144.47652256 112.85814265 142 115 C138.16409947 117.07345975 134.28264538 117.41760039 130 118 C130.81791016 119.32402832 130.81791016 119.32402832 131.65234375 120.67480469 C137.12475974 129.61604606 142.12994687 138.72634342 146.88720703 148.06591797 C148.0219236 150.29302952 149.16468808 152.51587748 150.30859375 154.73828125 C151.03952038 156.16382782 151.7700067 157.58960026 152.5 159.015625 C152.83845947 159.67492004 153.17691895 160.33421509 153.52563477 161.01348877 C156.20877593 166.28999734 157.41191047 170.02729817 157 176 C155.07278902 180.23986415 152.62425397 182.96904308 148.25 184.6875 C146.07521761 184.98955311 144.05236895 185.0306294 141.859375 185.01953125 C140.58578125 185.01308594 139.3121875 185.00664062 138 185 C138.50789063 185.99257813 139.01578125 186.98515625 139.5390625 188.0078125 C145.56407491 199.86082617 151.0143468 211.79907238 155.375 224.375 C155.63812988 225.11218262 155.90125977 225.84936523 156.17236328 226.60888672 C157.84629708 231.59916818 158.39225432 235.7325849 158 241 C155.9048297 245.04068558 154.23939332 247.35999473 150 249 C147.46893311 249.24050903 147.46893311 249.24050903 144.58886719 249.22705078 C143.50804871 249.22689972 142.42723022 249.22674866 141.31365967 249.22659302 C140.15312073 249.21627045 138.99258179 249.20594788 137.796875 249.1953125 C136.00748505 249.19106766 136.00748505 249.19106766 134.1819458 249.18673706 C130.37119524 249.17554053 126.56067955 249.15043653 122.75 249.125 C120.16667006 249.11496954 117.58333644 249.1058438 115 249.09765625 C108.66658651 249.07560289 102.33331003 249.04213035 96 249 C95.8951178 254.53311018 95.85682011 260.06139227 95.87792969 265.59545898 C95.87599307 267.47414366 95.85644078 269.3529015 95.81835938 271.23120117 C95.27912126 282.2873151 95.27912126 282.2873151 99.26660156 292.18798828 C101.9199231 294.62135392 101.9199231 294.62135392 104.75439453 296.46118164 C107 298 107 298 108 301 C108.515625 300.835 109.03125 300.67 109.5625 300.5 C118.35121087 298.69718751 126.45482343 301.13975574 133.875 305.875 C137.17112183 308.22020527 139.79790633 310.55324469 142 314 C142 314.66 142 315.32 142 316 C143.4540625 315.9071875 143.4540625 315.9071875 144.9375 315.8125 C151.55119427 315.86594399 157.05822299 317.71928648 161.875 322.3125 C166.66263464 327.27359967 168.42011781 332.14209286 168.375 339 C168.38273438 340.175625 168.39046875 341.35125 168.3984375 342.5625 C167.73644075 348.27384452 165.03675498 352.96324502 161 357 C153.55284577 361.95248197 146.91414027 362.75469751 138.125 362.5625 C137.01125 362.57345703 135.8975 362.58441406 134.75 362.59570312 C126.66300339 362.52262785 126.66300339 362.52262785 123.65576172 360.15209961 C122 358 122 358 122 355 C115.4 355 108.8 355 102 355 C101.67 356.65 101.34 358.3 101 360 C97.43025397 362.37983069 94.92034275 362.28167583 90.80162144 362.25726891 C90.05985062 362.26077498 89.3180798 362.26428105 88.55383107 362.26789337 C86.04847376 362.27725611 83.54334642 362.27227161 81.03797913 362.26742554 C79.23157623 362.27115934 77.42517495 362.27575977 75.61877626 362.28115618 C70.63936904 362.29343485 65.66002875 362.29312002 60.68060982 362.29076743 C55.31651713 362.29036049 49.95244626 362.30138655 44.58836365 362.31088257 C34.0736989 362.32751979 23.55905658 362.33299333 13.04437978 362.33410732 C4.50138438 362.33505644 -4.04160359 362.33915985 -12.58459663 362.34550858 C-36.78445074 362.36312778 -60.98428708 362.37234629 -85.18414765 362.37084763 C-86.48970461 362.37076772 -87.79526157 362.3706878 -89.14038086 362.37060547 C-90.44752438 362.37052371 -91.75466791 362.37044195 -93.10142184 362.37035771 C-114.29583309 362.36954443 -135.49017334 362.38869078 -156.68456405 362.4168822 C-178.426122 362.44557419 -200.16764528 362.45942456 -221.90922266 362.45769465 C-234.12383271 362.45702951 -246.33836831 362.46257598 -258.55296135 362.48405075 C-268.95097486 362.50221405 -279.34888018 362.5066499 -289.74690264 362.4930319 C-295.05571833 362.48647788 -300.36432617 362.4864724 -305.67312241 362.5037384 C-310.52823293 362.519367 -315.38296902 362.51671095 -320.23806984 362.49917014 C-321.99914494 362.49607758 -323.76024729 362.49981656 -325.52129029 362.51089029 C-327.90658047 362.5249019 -330.29053717 362.51451315 -332.6757803 362.49777794 C-333.71278686 362.51268248 -333.71278686 362.51268248 -334.77074304 362.52788812 C-338.12232417 362.47782114 -339.75374557 362.19377287 -342.42236334 360.09388888 C-344.12443598 357.83484467 -344.56795673 356.79384716 -344.5625 354 C-344.58441406 353.34 -344.60632813 352.68 -344.62890625 352 C-343.64312774 348.86510189 -341.68159849 347.7979004 -339 346 C-336.13745117 345.54589844 -336.13745117 345.54589844 -333.04296875 345.609375 C-331.37524414 345.62871094 -331.37524414 345.62871094 -329.67382812 345.6484375 C-327.9480957 345.69871094 -327.9480957 345.69871094 -326.1875 345.75 C-325.01767578 345.76804687 -323.84785156 345.78609375 -322.64257812 345.8046875 C-319.7608822 345.8517356 -316.88086203 345.91746291 -314 346 C-313.73678955 345.29166016 -313.4735791 344.58332031 -313.20239258 343.85351562 C-311.93367204 340.84259061 -310.43043768 338.15236028 -308.76171875 335.34375 C-308.11323975 334.24981934 -307.46476074 333.15588867 -306.79663086 332.02880859 C-306.09379764 330.85241334 -305.39074879 329.67614688 -304.6875 328.5 C-303.96028216 327.27820854 -303.23315099 326.0563655 -302.50610352 324.83447266 C-297.7067303 316.78392399 -292.81565369 308.79371925 -287.85717773 300.84008789 C-283.75234595 294.24660369 -279.7367792 287.60295341 -275.75 280.9375 C-270.40540306 272.00218562 -265.03260556 263.08477537 -259.625 254.1875 C-259.27119263 253.60531708 -258.91738525 253.02313416 -258.55285645 252.42330933 C-256.75470445 249.46474815 -254.9560802 246.50647445 -253.15722656 243.54833984 C-249.9555888 238.28287378 -246.75818677 233.01483618 -243.56048584 227.74697876 C-241.7904994 224.83121261 -240.0202356 221.91561488 -238.25 219 C-237.54166534 217.83333414 -236.83333201 216.66666747 -236.125 215.5 C-229.04166667 203.83333333 -221.95833333 192.16666667 -214.875 180.5 C-214.52440018 179.92254028 -214.17380035 179.34508057 -213.81257629 178.75012207 C-213.10399289 177.58304592 -212.39540525 176.41597236 -211.68681335 175.24890137 C-209.91977124 172.33852084 -208.15280216 169.42809603 -206.38598633 166.51757812 C-203.15332415 161.19250205 -199.92004793 155.86780267 -196.68417358 150.54467773 C-186.80496588 134.29477195 -186.80496588 134.29477195 -177 118 C-171.59036636 108.96215851 -166.13374118 99.95303553 -160.65527344 90.95678711 C-157.24600767 85.35669769 -153.84531575 79.75217903 -150.48246765 74.12405396 C-148.94558957 71.5528482 -147.40343379 68.98482673 -145.8609314 66.41699219 C-145.12817561 65.19379345 -144.39799211 63.96904959 -143.67056274 62.74267578 C-142.65682737 61.03411646 -141.63327789 59.33139186 -140.609375 57.62890625 C-139.7426416 56.1759314 -139.7426416 56.1759314 -138.85839844 54.69360352 C-134.88005292 48.92730214 -129.71391604 44.23797201 -123 42 C-115.50922857 41.25092286 -109.39149252 41.90362136 -103 46 C-96.42221818 52.01013143 -92.25288704 59.92029031 -87.875 67.5625 C-81.8563553 78.05037225 -81.8563553 78.05037225 -75 88 C-74.36835938 86.94425781 -73.73671875 85.88851562 -73.0859375 84.80078125 C-62.29894368 66.89146109 -50.83769386 49.51051002 -38 33 C-37.30648438 32.10410156 -36.61296875 31.20820313 -35.8984375 30.28515625 C-30.60432219 23.56402632 -24.99223097 17.11155987 -19.3996582 10.63916016 C-18.00626667 9.00733899 -16.64234467 7.35410744 -15.28125 5.6953125 C-11.10114319 0.75648767 -6.54305582 -1.50265477 0 0 Z M22 249 C23.35186201 252.37965503 24.49267281 255.02567788 26.328125 258.0546875 C26.79186523 258.82393555 27.25560547 259.59318359 27.73339844 260.38574219 C28.48411621 261.6179248 28.48411621 261.6179248 29.25 262.875 C29.76852539 263.73254883 30.28705078 264.59009766 30.82128906 265.47363281 C32.54324243 268.31837735 34.27119248 271.15941616 36 274 C37.30210668 276.14321498 38.60418955 278.28644443 39.90625 280.4296875 C43.26590894 285.95613202 46.63103462 291.47922445 50 297 C51.485 296.505 51.485 296.505 53 296 C54.1760003 293.6479994 54.12084541 292.26265599 54.11352539 289.64208984 C54.11344986 288.74130707 54.11337433 287.84052429 54.11329651 286.91244507 C54.10813522 285.93844757 54.10297394 284.96445007 54.09765625 283.9609375 C54.0962413 282.96494537 54.09482635 281.96895325 54.09336853 280.94277954 C54.08775936 277.75348947 54.0752053 274.56426894 54.0625 271.375 C54.05748618 269.21614685 54.05292307 267.05729259 54.04882812 264.8984375 C54.03863673 259.59890982 54.01906307 254.29953299 54 249 C43.44 249 32.88 249 22 249 Z " fill="#010100" transform="translate(344,102)"/>
<path d="M0 0 C2.72708961 2.72708961 4.27660805 4.92373657 6.1953125 8.21484375 C6.81978271 9.27888428 7.44425293 10.3429248 8.08764648 11.43920898 C8.41868378 12.00775604 8.74972107 12.5763031 9.09078979 13.16207886 C10.87711429 16.22864913 12.6795765 19.28571988 14.48046875 22.34375 C14.85375809 22.97836655 15.22704742 23.61298309 15.61164856 24.26683044 C19.49485796 30.85951774 23.45811968 37.40254906 27.4375 43.9375 C27.78862854 44.51450653 28.13975708 45.09151306 28.50152588 45.68600464 C30.2864659 48.61914841 32.07235366 51.55171302 33.85888672 54.48388672 C37.05814442 59.73591792 40.24796375 64.99367938 43.43850708 70.25100708 C45.20861902 73.16757223 46.9793403 76.08376738 48.75 79 C49.45833625 80.16666489 50.16666959 81.33333156 50.875 82.5 C51.225625 83.0775 51.57625 83.655 51.9375 84.25 C72.12499999 117.49999999 72.12499999 117.49999999 73.18742371 119.24987793 C73.89600711 120.41695408 74.60459475 121.58402764 75.31318665 122.75109863 C77.08022876 125.66147916 78.84719784 128.57190397 80.61401367 131.48242188 C83.84667585 136.80749795 87.07995207 142.13219733 90.31582642 147.45532227 C97.37841948 159.07361894 104.43157876 170.69687303 111.41455078 182.36328125 C117.82498947 193.06246979 124.31562552 203.71323097 130.79443359 214.37109375 C134.0137026 219.66728188 137.22967232 224.96547276 140.4458313 230.2635498 C141.4962396 231.99380579 142.54679994 233.72396936 143.59741211 235.45410156 C146.89788158 240.88938008 150.1975839 246.3251205 153.49487305 251.7623291 C155.04098913 254.31176902 156.58749676 256.86097131 158.1340332 259.41015625 C158.86648741 260.61772023 159.59875279 261.82539877 160.33081055 263.03320312 C161.35025973 264.71514022 162.37043123 266.39663944 163.390625 268.078125 C164.01001953 269.09970703 164.62941406 270.12128906 165.26757812 271.17382812 C166.81159333 273.69264437 168.3908015 276.18429112 169.984375 278.671875 C172 282 172 282 172 284 C115.24 284 58.48 284 0 284 C0 190.28 0 96.56 0 0 Z " fill="#FCCF58" transform="translate(234,165)"/>
<path d="M0 0 C0.33 0 0.66 0 1 0 C1 69.96 1 139.92 1 212 C-18.47 212.33 -37.94 212.66 -58 213 C-64.40447636 217.02821847 -64.40447636 217.02821847 -68 223 C-68.59793335 227.56924814 -68.60526978 232.1075148 -68.609375 236.7109375 C-68.62500488 237.88438721 -68.64063477 239.05783691 -68.65673828 240.2668457 C-68.70920568 244.63602604 -68.72758207 249.00556215 -68.75 253.375 C-68.8325 263.15125 -68.915 272.9275 -69 283 C-102.66 283 -136.32 283 -171 283 C-164.25170068 270.62811791 -164.25170068 270.62811791 -161.29296875 265.78515625 C-160.63296875 264.70169922 -159.97296875 263.61824219 -159.29296875 262.50195312 C-158.59116657 261.35545606 -157.88934307 260.20897204 -157.1875 259.0625 C-156.43983282 257.83675401 -155.69244322 256.61083867 -154.9453125 255.38476562 C-153.39868827 252.84716765 -151.85089371 250.31028939 -150.30224609 247.77392578 C-147.04231262 242.43277539 -143.7970484 237.08273114 -140.55142212 231.73287964 C-138.78495387 228.82151149 -137.0174203 225.91079024 -135.25 223 C-134.54166162 221.8333364 -133.83332829 220.66666973 -133.125 219.5 C-120.375 198.5 -107.625 177.5 -94.875 156.5 C-94.52440018 155.92254028 -94.17380035 155.34508057 -93.81257629 154.75012207 C-93.10399289 153.58304592 -92.39540525 152.41597236 -91.68681335 151.24890137 C-89.91977124 148.33852084 -88.15280216 145.42809603 -86.38598633 142.51757812 C-83.15332415 137.19250205 -79.92004793 131.86780267 -76.68417358 126.54467773 C-66.80496588 110.29477195 -66.80496588 110.29477195 -57 94 C-50.12269626 82.51013114 -43.16132155 71.0713634 -36.20556641 59.62890625 C-33.33856627 54.91225409 -30.4742009 50.19400348 -27.61010742 45.47558594 C-26.21123372 43.17112153 -24.81161546 40.86711193 -23.41137695 38.56347656 C-20.06579152 33.05823702 -16.72593306 27.54970586 -13.40197754 22.03137207 C-11.81856092 19.4032729 -10.23251089 16.77676788 -8.64624023 14.15039062 C-7.88531087 12.88881998 -7.12569584 11.62645559 -6.36743164 10.36328125 C-5.32112277 8.62043957 -4.27006294 6.88045271 -3.21875 5.140625 C-2.61998047 4.14579102 -2.02121094 3.15095703 -1.40429688 2.12597656 C-0.94087891 1.4244043 -0.47746094 0.72283203 0 0 Z " fill="#FBB65A" transform="translate(218,166)"/>
<path d="M0 0 C10.68205808 4.43269077 18.74182913 18.97500383 25.49414062 27.99316406 C26.83591432 29.7813255 28.18802817 31.56073999 29.546875 33.3359375 C37.32110385 43.54966575 44.20593301 54.24660128 51 65.125 C51.5887793 66.0627124 52.17755859 67.0004248 52.78417969 67.96655273 C53.32977539 68.84641846 53.87537109 69.72628418 54.4375 70.6328125 C55.17806641 71.82221436 55.17806641 71.82221436 55.93359375 73.03564453 C57 75 57 75 57 77 C56.19175781 77.02578125 55.38351562 77.0515625 54.55078125 77.078125 C47.8591083 77.3534127 47.8591083 77.3534127 41.8125 79.9375 C39.03887875 83.0936897 38.55366218 85.45946923 38.62011719 89.68505859 C39.37628334 94.2930068 42.13352545 97.94741095 44.625 101.8125 C50.00613843 110.51569078 54.9468766 119.34477661 59.625 128.4375 C60.21619629 129.58001221 60.80739258 130.72252441 61.41650391 131.8996582 C64.13553624 137.19865906 66.76024876 142.48004571 69 148 C67.46279297 148.03867187 67.46279297 148.03867187 65.89453125 148.078125 C64.53381301 148.13443058 63.17313757 148.19177737 61.8125 148.25 C61.13896484 148.26417969 60.46542969 148.27835938 59.77148438 148.29296875 C54.94263811 148.52852223 52.40672344 149.58686088 49 153 C47.45915155 156.08169689 47.39844926 158.6768702 48 162 C49.71167321 166.14970221 51.87604771 170.04908875 54 174 C60.18043032 185.85823528 66.0930329 197.77786566 69.58276367 210.73706055 C69.98249641 212.21712837 69.98249641 212.21712837 70.39030457 213.72709656 C70.59150406 214.47715469 70.79270355 215.22721283 71 216 C25.08199699 221.0442925 25.08199699 221.0442925 13.65625 214.69824219 C5.46397976 208.10615197 1.75405102 197.45654001 -1.60058594 187.81054688 C-3.23410707 183.16689412 -5.62470191 179.26921965 -8.4375 175.25 C-9.20202615 174.05635688 -9.95996294 172.85846518 -10.7109375 171.65625 C-11.26539551 170.77646484 -11.26539551 170.77646484 -11.83105469 169.87890625 C-14.62614822 165.38620787 -17.31894955 160.83084139 -20.03320312 156.2890625 C-24.63710267 148.59054688 -29.28251317 140.91768598 -33.9375 133.25 C-34.30239532 132.64845093 -34.66729065 132.04690186 -35.04324341 131.42712402 C-35.75634552 130.25164694 -36.46984224 129.07640914 -37.1837616 127.90142822 C-38.1856021 126.25128914 -39.18440015 124.59930409 -40.18310547 122.94726562 C-41.75608367 120.39566755 -43.39820066 117.91125379 -45.06640625 115.421875 C-47 112 -47 112 -46.74780273 109.99804688 C-45.24281169 105.97687591 -42.5985562 102.41313926 -40.23828125 98.83984375 C-36.8487135 93.45383157 -35.22597094 88.5605337 -36.625 82.125 C-38.43520534 79.32740992 -39.84948118 79.01657909 -43 78 C-45.0959986 77.72123482 -47.20262611 77.51411256 -49.3125 77.375 C-50.38113281 77.30023438 -51.44976562 77.22546875 -52.55078125 77.1484375 C-53.76314453 77.07496094 -53.76314453 77.07496094 -55 77 C-50.86916302 67.98268513 -45.86219398 59.94217009 -40.24072266 51.80224609 C-39.120469 50.17499059 -38.01810825 48.53545227 -36.91796875 46.89453125 C-25.8901287 30.59525714 -13.95141142 13.95141142 0 0 Z " fill="#53CBA0" transform="translate(339,120)"/>
<path d="M0 0 C3.78866119 1.51206657 5.62849827 3.6967967 8.125 6.875 C11.33370496 10.91345191 14.59156926 14.88695921 17.9375 18.8125 C54 62.13181644 54 62.13181644 54 73 C53.34773438 73.01417969 52.69546875 73.02835937 52.0234375 73.04296875 C45.61105705 73.39290692 42.45157299 74.32014122 38 79 C36.35878468 82.28243063 36.41565947 85.45976264 37 89 C38.50279554 92.29956751 40.52051341 95.19944867 42.5625 98.1875 C48.37303992 107.09688542 53.45697968 116.23734207 58.3125 125.6875 C58.64823029 126.33608978 58.98396057 126.98467957 59.3298645 127.65292358 C65 138.62140238 65 138.62140238 65 141 C63.78763672 141.05607422 63.78763672 141.05607422 62.55078125 141.11328125 C61.48214844 141.17902344 60.41351563 141.24476563 59.3125 141.3125 C57.72888672 141.39951172 57.72888672 141.39951172 56.11328125 141.48828125 C52.10954514 142.14636084 49.15472591 143.46036545 46.6875 146.75 C44.92027518 152.53364487 45.81884392 156.11396649 48.5625 161.37890625 C49.69865062 163.44545716 50.84504539 165.50639914 52 167.5625 C56.5656193 175.98299082 60.59527111 184.34661356 63.8125 193.375 C64.14314453 194.30127197 64.47378906 195.22754395 64.81445312 196.18188477 C67 202.52750295 67 202.52750295 67 206 C47.53 206 28.06 206 8 206 C4.6825054 197.15334773 4.6825054 197.15334773 3.421875 193.58984375 C-0.21582946 183.42943368 -4.30412833 173.71521193 -9 164 C-9.9857463 161.85718123 -10.96559874 159.71163378 -11.9375 157.5625 C-12.33839844 156.67691406 -12.73929687 155.79132813 -13.15234375 154.87890625 C-13.43207031 154.25886719 -13.71179688 153.63882813 -14 153 C-13.04738281 152.96261719 -12.09476562 152.92523438 -11.11328125 152.88671875 C-9.85902344 152.82097656 -8.60476563 152.75523437 -7.3125 152.6875 C-5.45044922 152.60048828 -5.45044922 152.60048828 -3.55078125 152.51171875 C0.09392151 151.98646456 2.07967713 151.19430569 5 149 C6.92782927 145.14434147 6.61150196 141.19142073 6 137 C4.20117188 132.07509631 1.81784239 127.50086435 -0.625 122.875 C-1.30123692 121.55952723 -1.97643583 120.24352038 -2.65063477 118.92700195 C-8.6466003 107.31312303 -15.17327371 96.01385818 -21.95288086 84.84057617 C-23 83 -23 83 -23 82 C-21.78763672 81.94392578 -21.78763672 81.94392578 -20.55078125 81.88671875 C-19.48214844 81.82097656 -18.41351563 81.75523437 -17.3125 81.6875 C-16.25675781 81.62949219 -15.20101563 81.57148438 -14.11328125 81.51171875 C-10.73492769 80.95643103 -8.75080954 80.0073475 -6 78 C-4.07026415 74.1405283 -4.31478151 70.18906625 -5 66 C-6.96785843 61.5121554 -9.53227048 57.4850483 -12.1875 53.375 C-12.86103516 52.29476562 -13.53457031 51.21453125 -14.22851562 50.1015625 C-16.64881853 46.22907785 -19.07296414 42.36473376 -21.63916016 38.58691406 C-25.05276665 33.48362549 -25.05276665 33.48362549 -24.78149414 30.99731445 C-23.928182 28.81645015 -22.93756592 27.36781688 -21.4453125 25.56640625 C-20.91768311 24.92316406 -20.39005371 24.27992188 -19.84643555 23.6171875 C-19.27836182 22.93914062 -18.71028809 22.26109375 -18.125 21.5625 C-17.5472583 20.86253906 -16.9695166 20.16257813 -16.37426758 19.44140625 C-14.59136696 17.28699686 -12.79785171 15.14194288 -11 13 C-10.16299561 12.00202393 -10.16299561 12.00202393 -9.30908203 10.98388672 C-6.22157002 7.3092535 -3.11783595 3.64893025 0 0 Z " fill="#55BA97" transform="translate(418,130)"/>
<path d="M0 0 C4.41854392 3.99842008 8.07420773 8.62860477 10.3828125 14.15625 C9.93836806 20.60069444 9.93836806 20.60069444 7.3828125 23.15625 C7.17668079 26.24359113 7.17668079 26.24359113 7.3203125 29.78125 C7.39599809 33.88509111 7.41502395 37.73861545 6.6953125 41.78125 C6.32362205 45.79550686 7.04487109 46.13640901 9.3828125 49.15625 C9.71936595 53.36316818 9.0787103 55.18476435 6.6171875 58.62109375 C-2.02854811 68.67251714 -11.28086821 74.468626 -24.4921875 75.96875 C-37.09586047 76.70263476 -48.13369279 72.84938002 -57.9921875 64.90625 C-62.21631426 60.92801835 -65.00434329 56.30028703 -67.6171875 51.15625 C-67.9471875 50.50914062 -68.2771875 49.86203125 -68.6171875 49.1953125 C-73.20052172 38.75059895 -72.19868237 26.7167537 -68.6171875 16.15625 C-62.32355544 3.35811677 -53.66494005 -3.53595097 -40.5234375 -8.66015625 C-26.28605448 -12.97360068 -11.43020643 -8.93089015 0 0 Z " fill="#010100" transform="translate(135.6171875,90.84375)"/>
<path d="M0 0 C0.33 0 0.66 0 1 0 C3.70760735 16.82727825 -2.63861775 26.91841133 -11.79736328 40.64941406 C-15.13658928 45.68301056 -18.21434634 50.8775114 -21.31985474 56.05691528 C-23.09469052 59.00994429 -24.88792796 61.95175159 -26.6796875 64.89453125 C-27.40079913 66.08019042 -28.12182779 67.26590005 -28.84277344 68.45166016 C-29.19932007 69.0380426 -29.5558667 69.62442505 -29.92321777 70.22857666 C-32.76408673 74.90211366 -35.60151885 79.57773891 -38.43951416 84.25302124 C-40.2095006 87.16878739 -41.9797644 90.08438512 -43.75 93 C-44.45833466 94.16666586 -45.16666799 95.33333253 -45.875 96.5 C-52.95833333 108.16666667 -60.04166667 119.83333333 -67.125 131.5 C-67.47559982 132.07745972 -67.82619965 132.65491943 -68.18742371 133.24987793 C-68.89600711 134.41695408 -69.60459475 135.58402764 -70.31318665 136.75109863 C-72.08022876 139.66147916 -73.84719784 142.57190397 -75.61401367 145.48242188 C-78.84667585 150.80749795 -82.07995207 156.13219733 -85.31582642 161.45532227 C-95.19503412 177.70522805 -95.19503412 177.70522805 -105 194 C-111.50515021 204.86811427 -118.08603399 215.69008675 -124.66604614 226.51295471 C-127.25106977 230.76554194 -129.83156459 235.02085403 -132.41015625 239.27734375 C-133.50657173 241.08630603 -134.60307626 242.89521429 -135.69961548 244.70410156 C-136.6925594 246.34270857 -137.6845654 247.98188383 -138.67651367 249.62109375 C-145.04672772 260.12627432 -151.53226643 270.55212269 -158 281 C-128.96 281.33 -99.92 281.66 -70 282 C-70 263.52 -70 245.04 -70 226 C-69.67 226 -69.34 226 -69 226 C-69 244.81 -69 263.62 -69 283 C-102.66 283 -136.32 283 -171 283 C-164.25170068 270.62811791 -164.25170068 270.62811791 -161.29296875 265.78515625 C-160.63296875 264.70169922 -159.97296875 263.61824219 -159.29296875 262.50195312 C-158.59116657 261.35545606 -157.88934307 260.20897204 -157.1875 259.0625 C-156.43983282 257.83675401 -155.69244322 256.61083867 -154.9453125 255.38476562 C-153.39868827 252.84716765 -151.85089371 250.31028939 -150.30224609 247.77392578 C-147.04231262 242.43277539 -143.7970484 237.08273114 -140.55142212 231.73287964 C-138.78495387 228.82151149 -137.0174203 225.91079024 -135.25 223 C-134.54166162 221.8333364 -133.83332829 220.66666973 -133.125 219.5 C-120.375 198.5 -107.625 177.5 -94.875 156.5 C-94.52440018 155.92254028 -94.17380035 155.34508057 -93.81257629 154.75012207 C-93.10399289 153.58304592 -92.39540525 152.41597236 -91.68681335 151.24890137 C-89.91977124 148.33852084 -88.15280216 145.42809603 -86.38598633 142.51757812 C-83.15332415 137.19250205 -79.92004793 131.86780267 -76.68417358 126.54467773 C-66.80496588 110.29477195 -66.80496588 110.29477195 -57 94 C-50.12269626 82.51013114 -43.16132155 71.0713634 -36.20556641 59.62890625 C-33.33856627 54.91225409 -30.4742009 50.19400348 -27.61010742 45.47558594 C-26.21123372 43.17112153 -24.81161546 40.86711193 -23.41137695 38.56347656 C-20.06579152 33.05823702 -16.72593306 27.54970586 -13.40197754 22.03137207 C-11.81856092 19.4032729 -10.23251089 16.77676788 -8.64624023 14.15039062 C-7.88531087 12.88881998 -7.12569584 11.62645559 -6.36743164 10.36328125 C-5.32112277 8.62043957 -4.27006294 6.88045271 -3.21875 5.140625 C-2.61998047 4.14579102 -2.02121094 3.15095703 -1.40429688 2.12597656 C-0.94087891 1.4244043 -0.47746094 0.72283203 0 0 Z " fill="#E69636" transform="translate(218,166)"/>
<path d="M0 0 C2.79967885 2.33781737 5.09203601 4.99595009 7.375 7.83203125 C8.98732534 9.83743463 8.98732534 9.83743463 11.91796875 11.6015625 C15.43585306 11.65265211 18.89606066 11.54981375 22.40625 11.34765625 C28.13318352 11.17594925 31.25039848 12.21371774 35.91796875 15.6015625 C38.0625 18.14453125 38.0625 18.14453125 39.73046875 20.7890625 C41.77765602 24.29582094 41.77765602 24.29582094 44.91796875 26.6015625 C48.19585392 26.80035607 51.47180537 26.91991607 54.75390625 27.02734375 C58.46549979 27.70092924 59.67149325 28.62254064 61.91796875 31.6015625 C62.41796875 34.6015625 62.41796875 34.6015625 61.91796875 37.6015625 C59.68590444 40.44936869 58.36803876 41.45153916 54.91796875 42.6015625 C53.39907016 42.69144228 51.87699674 42.73302902 50.35546875 42.7421875 C49.47632813 42.76152344 48.5971875 42.78085937 47.69140625 42.80078125 C45.84266793 42.83463139 43.99357761 42.85286446 42.14453125 42.85546875 C39.64156198 42.92519957 37.35739691 43.03312971 34.91796875 43.6015625 C32.74021483 45.87326775 32.74021483 45.87326775 31.91796875 48.6015625 C31.42296875 49.5915625 31.42296875 49.5915625 30.91796875 50.6015625 C24.31796875 50.6015625 17.71796875 50.6015625 10.91796875 50.6015625 C10.25796875 48.2915625 9.59796875 45.9815625 8.91796875 43.6015625 C8.08773193 43.68180664 8.08773193 43.68180664 7.24072266 43.76367188 C-8.03434806 44.94625799 -8.03434806 44.94625799 -12.84960938 41.24169922 C-15.95802009 37.54649668 -17.93039279 33.24543268 -19.94482422 28.88720703 C-22.21243684 24.32958801 -25.24243352 20.19407118 -28.12548828 16.00756836 C-30.08204213 12.98412412 -31.0825292 11.01286916 -31.078125 7.375 C-29.39799518 2.69699149 -26.10139124 0.34367524 -22.08203125 -2.3984375 C-14.30359318 -5.79266502 -6.90569737 -4.71406886 0 0 Z " fill="#8BB941" transform="translate(435.08203125,406.3984375)"/>
<path d="M0 0 C3.38059896 4.05671876 6.27383964 8.31689566 9.125 12.75 C9.59929443 13.48718262 10.07358887 14.22436523 10.56225586 14.98388672 C13.97103802 20.31883138 17.30965547 25.69355652 20.5625 31.125 C20.97967285 31.81045898 21.3968457 32.49591797 21.82666016 33.20214844 C25.64698645 39.67024131 28.09477042 46.37766098 27 54 C25.13940929 60.81864211 22.45058219 65.49734515 17 70 C16.34 70 15.68 70 15 70 C15.38220703 70.69859131 15.76441406 71.39718262 16.15820312 72.11694336 C40.14013687 116.0441406 40.14013687 116.0441406 37.38671875 127.56640625 C35.15719883 133.9996025 31.71699228 138.26291847 26 142 C25.34 142 24.68 142 24 142 C24.24645264 142.61818604 24.49290527 143.23637207 24.74682617 143.87329102 C38 177.19953326 38 177.19953326 38 184 C53.18 184 68.36 184 84 184 C84.33 183.34 84.66 182.68 85 182 C85 182.99 85 183.98 85 185 C65.53 185 46.06 185 26 185 C22.6825054 176.15334773 22.6825054 176.15334773 21.421875 172.58984375 C17.78417054 162.42943368 13.69587167 152.71521193 9 143 C8.0142537 140.85718123 7.03440126 138.71163378 6.0625 136.5625 C5.66160156 135.67691406 5.26070313 134.79132813 4.84765625 133.87890625 C4.56792969 133.25886719 4.28820312 132.63882813 4 132 C4.95261719 131.96261719 5.90523438 131.92523438 6.88671875 131.88671875 C8.14097656 131.82097656 9.39523437 131.75523437 10.6875 131.6875 C12.54955078 131.60048828 12.54955078 131.60048828 14.44921875 131.51171875 C18.09392151 130.98646456 20.07967713 130.19430569 23 128 C24.92782927 124.14434147 24.61150196 120.19142073 24 116 C22.20117188 111.07509631 19.81784239 106.50086435 17.375 101.875 C16.69876308 100.55952723 16.02356417 99.24352038 15.34936523 97.92700195 C9.3533997 86.31312303 2.82672629 75.01385818 -3.95288086 63.84057617 C-5 62 -5 62 -5 61 C-3.78763672 60.94392578 -3.78763672 60.94392578 -2.55078125 60.88671875 C-1.48214844 60.82097656 -0.41351563 60.75523437 0.6875 60.6875 C1.74324219 60.62949219 2.79898437 60.57148438 3.88671875 60.51171875 C7.26507231 59.95643103 9.24919046 59.0073475 12 57 C13.92973585 53.1405283 13.68521849 49.18906625 13 45 C11.03214157 40.5121554 8.46772952 36.4850483 5.8125 32.375 C5.13896484 31.29476562 4.46542969 30.21453125 3.77148438 29.1015625 C1.35118147 25.22907785 -1.07296414 21.36473376 -3.63916016 17.58691406 C-7.0648167 12.46561086 -7.0648167 12.46561086 -6.70996094 9.91650391 C-5.81526117 7.5013068 -4.52332527 5.77445779 -2.9375 3.75 C-2.38964844 3.04359375 -1.84179688 2.3371875 -1.27734375 1.609375 C-0.85582031 1.07828125 -0.43429687 0.5471875 0 0 Z " fill="#55A78D" transform="translate(400,151)"/>
<path d="M0 0 C5.5485928 2.64099687 9.68617554 5.95164183 13.359375 10.921875 C14.81787527 12.81945257 16.15229565 14.49840033 17.9765625 16.05078125 C21.73049569 16.63739593 21.73049569 16.63739593 24.9765625 16.05078125 C26.56280553 23.98199642 26.16963065 30.37504272 23.9765625 38.05078125 C22.9246875 37.94765625 21.8728125 37.84453125 20.7890625 37.73828125 C15.90823931 38.13834872 15.14831385 39.41487116 11.9765625 43.05078125 C5.3883601 49.44315598 0.04262618 53.13739387 -9.3984375 53.48828125 C-17.07774504 53.29431481 -23.84336963 51.06356069 -29.60546875 45.76953125 C-35.39077455 38.75703937 -38.02234771 31.211091 -37.53515625 22.16015625 C-36.20916836 14.10300845 -32.36233062 8.68718679 -26.18359375 3.5234375 C-18.19722994 -1.9211541 -9.29708466 -2.91885216 0 0 Z " fill="#FCCF58" transform="translate(117.0234375,97.94921875)"/>
<path d="M0 0 C2.61206131 3.2888158 4.63914556 6.76915107 6.69140625 10.4296875 C10.63721778 17.41301585 14.75580504 24.28005825 18.9375 31.125 C19.67598384 32.33711618 20.41425989 33.54935897 21.15234375 34.76171875 C22.67742941 37.26643494 24.20338382 39.77061854 25.72998047 42.27441406 C28.97689674 47.60129128 32.21276988 52.93486728 35.44903564 58.26821899 C36.85155692 60.57929613 38.25470132 62.88999466 39.65783691 65.20069885 C42.57876766 70.01096648 45.49880717 74.82177313 48.41751099 79.63339233 C49.93454545 82.13422044 51.45188172 84.63486536 52.96923828 87.13549805 C54.018846 88.86554596 55.06802604 90.59585331 56.1171875 92.32617188 C57.09751953 93.94168945 57.09751953 93.94168945 58.09765625 95.58984375 C58.73203613 96.63640137 59.36641602 97.68295898 60.02001953 98.76123047 C61.4256319 101.06047261 62.84140426 103.35037009 64.27294922 105.63330078 C64.64471786 106.22873184 65.01648651 106.8241629 65.39952087 107.43763733 C66.43931564 109.10059999 67.48404358 110.76047513 68.52905273 112.42016602 C70 115 70 115 70 117 C83.53 116.67 97.06 116.34 111 116 C111 116.66 111 117.32 111 118 C65.08199699 123.0442925 65.08199699 123.0442925 53.65625 116.69824219 C45.46397976 110.10615197 41.75405102 99.45654001 38.39941406 89.81054688 C36.76589293 85.16689412 34.37529809 81.26921965 31.5625 77.25 C30.79797385 76.05635688 30.04003706 74.85846518 29.2890625 73.65625 C28.91942383 73.06972656 28.54978516 72.48320312 28.16894531 71.87890625 C25.37385178 67.38620787 22.68105045 62.83084139 19.96679688 58.2890625 C15.36289733 50.59054688 10.71748683 42.91768598 6.0625 35.25 C5.51515701 34.34767639 5.51515701 34.34767639 4.95675659 33.42712402 C4.24365448 32.25164694 3.53015776 31.07640914 2.8162384 29.90142822 C1.8143979 28.25128914 0.81559985 26.59930409 -0.18310547 24.94726562 C-1.75608367 22.39566755 -3.39820066 19.91125379 -5.06640625 17.421875 C-7 14 -7 14 -6.70898438 11.94726562 C-5.75702023 9.33264233 -4.39978557 7.11454688 -2.9375 4.75 C-2.38964844 3.85796875 -1.84179688 2.9659375 -1.27734375 2.046875 C-0.64505859 1.03367188 -0.64505859 1.03367188 0 0 Z " fill="#54B895" transform="translate(299,218)"/>
<path d="M0 0 C2.79967885 2.33781737 5.09203601 4.99595009 7.375 7.83203125 C8.98732534 9.83743463 8.98732534 9.83743463 11.91796875 11.6015625 C15.43585306 11.65265211 18.89606066 11.54981375 22.40625 11.34765625 C28.13318352 11.17594925 31.25039848 12.21371774 35.91796875 15.6015625 C38.0625 18.14453125 38.0625 18.14453125 39.73046875 20.7890625 C41.77765602 24.29582094 41.77765602 24.29582094 44.91796875 26.6015625 C48.19585392 26.80035607 51.47180537 26.91991607 54.75390625 27.02734375 C58.46549979 27.70092924 59.67149325 28.62254064 61.91796875 31.6015625 C62.49292067 35.05127401 62.4225025 36.79546835 60.55859375 39.7734375 C56.36674524 42.67548647 52.13041499 42.0233649 47.16796875 41.8515625 C46.18441406 41.83351563 45.20085937 41.81546875 44.1875 41.796875 C41.76333092 41.74980376 39.34114816 41.68406992 36.91796875 41.6015625 C36.59546143 40.99103027 36.2729541 40.38049805 35.94067383 39.75146484 C35.50650146 38.94660645 35.0723291 38.14174805 34.625 37.3125 C34.19936768 36.51634277 33.77373535 35.72018555 33.33520508 34.89990234 C29.49751462 28.67629891 23.89599563 25.4840774 16.91796875 23.6015625 C12.91903027 23.11303304 8.92027354 23.11896303 4.89648438 23.07421875 C-1.69024558 22.8934691 -6.55916423 21.72180506 -11.75 17.359375 C-14.39507546 14.23136282 -16.41336043 11.04793306 -18.39453125 7.4765625 C-18.93303711 6.54650391 -18.93303711 6.54650391 -19.48242188 5.59765625 C-21.10209204 2.72852624 -22.08203125 0.9487109 -22.08203125 -2.3984375 C-14.0114435 -5.31758626 -7.19422596 -4.9110285 0 0 Z " fill="#97C954" transform="translate(435.08203125,406.3984375)"/>
<path d="M0 0 C0 14.52 0 29.04 0 44 C-14.52 44 -29.04 44 -44 44 C-42.20439878 40.40879755 -40.89079491 38.63827399 -38.1328125 35.87402344 C-36.94147705 34.67323151 -36.94147705 34.67323151 -35.72607422 33.44818115 C-34.86771973 32.59387512 -34.00936523 31.73956909 -33.125 30.859375 C-32.24473145 29.97719299 -31.36446289 29.09501099 -30.45751953 28.18609619 C-28.12101752 25.84788561 -25.77970581 23.51461799 -23.43676758 21.18286133 C-21.52179237 19.27309251 -19.61427599 17.35595907 -17.70669556 15.43880844 C-15.43430977 13.1574764 -13.15433769 10.88375806 -10.875 8.609375 C-9.58746826 7.31577057 -9.58746826 7.31577057 -8.27392578 5.99603271 C-7.47970215 5.2081134 -6.68547852 4.42019409 -5.8671875 3.60839844 C-5.16706543 2.90986755 -4.46694336 2.21133667 -3.74560547 1.49163818 C-2 0 -2 0 0 0 Z " fill="#606483" transform="translate(219,405)"/>
<path d="M0 0 C14.52 0 29.04 0 44 0 C37.24828443 7.8770015 37.24828443 7.8770015 33.93823242 11.19116211 C33.20114548 11.93140121 32.46405853 12.67164032 31.70463562 13.43431091 C30.92941055 14.20751175 30.15418549 14.98071259 29.35546875 15.77734375 C28.13988029 16.99436729 28.13988029 16.99436729 26.8997345 18.23597717 C25.19911444 19.93727402 23.49724579 21.6373236 21.79418945 23.33618164 C19.17477713 25.95019665 16.56079589 28.56955855 13.94726562 31.18945312 C12.29198759 32.84407111 10.63639978 34.49837927 8.98046875 36.15234375 C8.19512253 36.9397142 7.40977631 37.72708466 6.60063171 38.53831482 C5.5186425 39.61557579 5.5186425 39.61557579 4.41479492 40.71459961 C3.45932014 41.668881 3.45932014 41.668881 2.48454285 42.6424408 C1 44 1 44 0 44 C0 29.48 0 14.96 0 0 Z " fill="#FCCF58" transform="translate(164,393)"/>
<path d="M0 0 C-0.886875 0.928125 -1.77375 1.85625 -2.6875 2.8125 C-10.44978231 12.08667578 -12.21851567 21.29733536 -11.23925781 33.0703125 C-10.19978512 41.45397794 -5.81365142 47.15368762 0 53 C-3.40445689 54.18616824 -5.12646889 53.86818447 -8.375 52.375 C-17.38352031 47.98131906 -21.70920063 42.54668759 -25 33 C-26.25786417 25.41713088 -25.46151877 18.91348172 -21.62109375 12.22265625 C-16.3655933 5.0169219 -9.22886508 -0.65920465 0 0 Z " fill="#F7B359" transform="translate(105,97)"/>
<path d="M0 0 C0.55474345 4.29891775 0.99828245 8.28336817 -1.2421875 12.13604736 C-3.06277968 14.21587205 -4.97213445 16.09822519 -7 17.9765625 C-7.71027344 18.67268646 -8.42054688 19.36881042 -9.15234375 20.08602905 C-11.41241014 22.29039439 -13.70476757 24.45733397 -16 26.625 C-17.5439393 28.11874832 -19.08563369 29.61482072 -20.625 31.11328125 C-24.38773923 34.77465358 -28.19212555 38.38336924 -32 42 C-16.16 42.495 -16.16 42.495 0 43 C0 43.33 0 43.66 0 44 C-14.52 44 -29.04 44 -44 44 C-42.20439878 40.40879755 -40.89079491 38.63827399 -38.1328125 35.87402344 C-36.94147705 34.67323151 -36.94147705 34.67323151 -35.72607422 33.44818115 C-34.86771973 32.59387512 -34.00936523 31.73956909 -33.125 30.859375 C-32.24473145 29.97719299 -31.36446289 29.09501099 -30.45751953 28.18609619 C-28.12101752 25.84788561 -25.77970581 23.51461799 -23.43676758 21.18286133 C-21.52179237 19.27309251 -19.61427599 17.35595907 -17.70669556 15.43880844 C-15.43430977 13.1574764 -13.15433769 10.88375806 -10.875 8.609375 C-9.58746826 7.31577057 -9.58746826 7.31577057 -8.27392578 5.99603271 C-7.47970215 5.2081134 -6.68547852 4.42019409 -5.8671875 3.60839844 C-5.16706543 2.90986755 -4.46694336 2.21133667 -3.74560547 1.49163818 C-2 0 -2 0 0 0 Z " fill="#484D68" transform="translate(219,405)"/>
<path d="M0 0 C3.96 0 7.92 0 12 0 C12 11.88 12 23.76 12 36 C6.06 36.495 6.06 36.495 0 37 C0 24.79 0 12.58 0 0 Z " fill="#AD7942" transform="translate(413,351)"/>
<path d="M0 0 C2.32696094 1.70883986 4.33991972 3.64488239 6.375 5.6875 C7.19291016 6.44450195 7.19291016 6.44450195 8.02734375 7.21679688 C11.0061249 10.16944837 11.93610166 11.42730363 12.41796875 15.74609375 C11.96370682 19.28254409 11.72927499 20.71093065 9 23 C4.88807779 24.24133501 2.87389872 24.43694936 -1 22.5 C-12.7 12.75 -12.7 12.75 -13.375 6.5625 C-13 3 -13 3 -11.1875 0.625 C-6.9409322 -2.52959322 -4.67723142 -2.06549271 0 0 Z " fill="#000000" transform="translate(151,156)"/>
<path d="M0 0 C2.4375 1.5625 2.4375 1.5625 4 4 C4.6875 7.25 4.6875 7.25 4 11 C2.00616428 14.03180314 -0.40043988 16.48183511 -3 19 C-3.58652344 19.60714844 -4.17304688 20.21429688 -4.77734375 20.83984375 C-7.80954928 23.76203729 -9.43867372 24.90485995 -13.6875 25.625 C-17 25 -17 25 -19.4375 23.4375 C-21.70159958 19.90550465 -21.7587407 18.13858566 -21 14 C-19.00616428 10.96819686 -16.59956012 8.51816489 -14 6 C-13.41347656 5.39285156 -12.82695312 4.78570312 -12.22265625 4.16015625 C-8.30586242 0.38546832 -5.63619029 -1.06343213 0 0 Z " fill="#000000" transform="translate(159,68)"/>
<path d="M0 0 C2.6652701 1.71916168 4.72022002 3.87560065 6.875 6.1875 C7.74511719 7.0547168 7.74511719 7.0547168 8.6328125 7.93945312 C11.6580273 11.06715768 13.92949743 13.43300015 14 18 C11.72289157 23.63855422 11.72289157 23.63855422 9 25 C6.0677873 25.61087765 4.8146638 25.80271947 2 25 C-3.48950392 21.12108786 -9.17326225 16.19190174 -12 10 C-12 6.1936779 -11.84618784 4.00891627 -9.375 1.0625 C-5.95079325 -0.46938197 -3.73718795 -0.44784484 0 0 Z " fill="#000000" transform="translate(63,68)"/>
<path d="M0 0 C2.1953125 1.36328125 2.1953125 1.36328125 4 4 C4.59756927 7.50832226 4.55781423 10.94924278 4.5 14.5 C4.51546875 15.45003906 4.5309375 16.40007812 4.546875 17.37890625 C4.50814609 24.26296913 4.50814609 24.26296913 2.1875 27.62890625 C-1.01899936 29.63869424 -3.2957181 29.46303524 -7 29 C-10.1850357 27.23984869 -10.83296972 26.50109084 -12 23 C-12.14854388 20.19480593 -12.23104204 17.43077873 -12.25 14.625 C-12.270625 13.86960937 -12.29125 13.11421875 -12.3125 12.3359375 C-12.34473434 7.72642635 -11.98163536 4.74875514 -9 1 C-5.90826248 -0.54586876 -3.40570448 -0.29359521 0 0 Z " fill="#000000" transform="translate(111,48)"/>
<path d="M0 0 C2.44988842 2.44988842 2.7658669 3.56604793 3 7 C1.09266346 11.54633988 -1.31554381 14.79804871 -4.75 18.3125 C-5.56984375 19.17488281 -6.3896875 20.03726563 -7.234375 20.92578125 C-10.56795789 23.42596842 -12.87786259 23.79607801 -17 24 C-19.64816011 23.21270916 -20.62884529 22.47719891 -22.3125 20.3125 C-23.33617906 16.86921589 -22.81695602 14.48763286 -22 11 C-20.28168476 8.77137973 -18.77830618 7.06487478 -16.75 5.1875 C-16.03263672 4.47303711 -16.03263672 4.47303711 -15.30078125 3.74414062 C-10.13539343 -1.23226959 -6.7200787 -2.98670164 0 0 Z " fill="#000000" transform="translate(74,156)"/>
<path d="M0 0 C2.83791629 4.25687444 2.36791418 7.93137082 2.375 12.9375 C2.39949219 13.84435547 2.42398438 14.75121094 2.44921875 15.68554688 C2.47860505 22.34154337 2.47860505 22.34154337 0.12890625 25.57421875 C-2.38315649 27.25660939 -3.97530437 27.85245387 -7 28 C-9.94809151 27.24583706 -11.50348938 26.80540022 -13.12353516 24.17749023 C-14.58966607 20.53503296 -14.36876414 16.94432122 -14.375 13.0625 C-14.39949219 12.26392578 -14.42398438 11.46535156 -14.44921875 10.64257812 C-14.46923068 6.61684561 -14.30846531 4.50470174 -12.1640625 0.99609375 C-7.94324437 -2.89711575 -5.09162511 -1.85150004 0 0 Z " fill="#000000" transform="translate(113,172)"/>
<path d="M0 0 C0.95003906 -0.02384766 1.90007812 -0.04769531 2.87890625 -0.07226562 C9.80542897 -0.05765271 9.80542897 -0.05765271 13.125 2.90625 C14.80421165 6.1501816 15.11327098 7.95953301 14.5 11.5625 C12.6329009 13.86525556 11.14352259 15.24073871 8.5 16.5625 C5.71558045 16.71379552 2.97287513 16.79388429 0.1875 16.8125 C-0.57240234 16.833125 -1.33230469 16.85375 -2.11523438 16.875 C-6.74053535 16.90714805 -9.74034757 16.55858665 -13.5 13.5625 C-15.04586876 10.47076248 -14.79359521 7.96820448 -14.5 4.5625 C-11.10324336 -0.89761598 -5.76858844 -0.06653053 0 0 Z " fill="#000000" transform="translate(168.5,115.4375)"/>
<path d="M0 0 C0.90234375 -0.01546875 1.8046875 -0.0309375 2.734375 -0.046875 C9.31653132 -0.00792733 9.31653132 -0.00792733 12.5703125 2.41015625 C14.0731375 4.60690864 14.83904947 5.84431621 15 8.5 C14.23394506 11.64082526 13.48969951 13.11010591 10.94921875 15.1328125 C7.00820733 16.95977144 3.72365114 16.90447749 -0.5625 16.8125 C-1.31724609 16.81572266 -2.07199219 16.81894531 -2.84960938 16.82226562 C-9.88498477 16.75408137 -9.88498477 16.75408137 -13 14.5 C-14.54137619 11.78424195 -15.0272951 10.05954946 -14.875 6.9375 C-12.2046197 -0.50141655 -6.91581339 -0.1185568 0 0 Z " fill="#000000" transform="translate(46,115.5)"/>
</svg>
