<?xml version="1.0" encoding="UTF-8"?>
<svg version="1.1" xmlns="http://www.w3.org/2000/svg" width="512" height="512">
<path d="M0 0 C10.81348561 10.22897288 14.0009173 22.85796961 15.3125 37.1875 C16.6325 37.5175 17.9525 37.8475 19.3125 38.1875 C18.9825 37.5275 18.6525 36.8675 18.3125 36.1875 C17.74832283 30.09438652 17.74832283 30.09438652 19.67578125 26.99609375 C23.82033785 24.15323493 27.90462608 24.5683963 32.8125 24.625 C33.76253906 24.60115234 34.71257812 24.57730469 35.69140625 24.55273438 C42.61792897 24.56734729 42.61792897 24.56734729 45.9375 27.53125 C47.61671165 30.7751816 47.92577098 32.58453301 47.3125 36.1875 C45.4454009 38.49025556 43.95602259 39.86573871 41.3125 41.1875 C38.94126754 41.41779956 36.56508057 41.59869942 34.1875 41.75 C32.90617188 41.83378906 31.62484375 41.91757813 30.3046875 42.00390625 C29.31726563 42.06449219 28.32984375 42.12507813 27.3125 42.1875 C28.17875 42.744375 29.045 43.30125 29.9375 43.875 C38.01465095 49.36065287 42.90403109 55.37056218 47.3125 64.1875 C49.46492651 64.67238729 51.63615295 65.07477549 53.8125 65.4375 C58.56344253 66.36952595 61.90070101 67.22203427 65.6875 70.25 C70.23540055 73.71830547 74.84465668 73.96146532 80.34765625 74.42773438 C86.5305143 75.01908728 91.08278029 76.96662112 96.3125 80.1875 C98.51858425 81.4946751 98.51858425 81.4946751 102.1875 81 C105.43792688 80.9468112 106.08597507 81.0176063 108.8125 83.0625 C110.3125 85.1875 110.3125 85.1875 110.3125 87.1875 C116.9125 87.1875 123.5125 87.1875 130.3125 87.1875 C130.9725 85.5375 131.6325 83.8875 132.3125 82.1875 C141.32644566 77.68052717 157.11607337 84.16110413 165.94482422 87.04833984 C183.15078736 93.12393831 199.17049545 101.63268473 213.3125 113.1875 C214.32183594 113.99445313 215.33117187 114.80140625 216.37109375 115.6328125 C230.29152792 126.94517766 242.72234016 139.71578603 253.3125 154.1875 C253.74256348 154.76741699 254.17262695 155.34733398 254.61572266 155.94482422 C271.38749753 178.60516112 283.74564705 203.95195798 296.63232422 228.93603516 C299.2200724 233.94382799 301.82771687 238.94116424 304.4375 243.9375 C304.92629639 244.87376221 305.41509277 245.81002441 305.91870117 246.7746582 C307.38297939 249.57910679 308.84766949 252.38333985 310.3125 255.1875 C317.26192374 268.49094839 324.19154405 281.80436334 331.09667969 295.13085938 C335.83353448 304.27014126 340.58903392 313.39955303 345.35546875 322.5234375 C347.42481735 326.48478177 349.48923583 330.44865186 351.55078125 334.4140625 C352.08622559 335.44305664 352.62166992 336.47205078 353.17333984 337.53222656 C354.18895596 339.48419734 355.20367476 341.43663539 356.21728516 343.38964844 C357.13421385 345.15078939 358.05635725 346.90922781 358.984375 348.66455078 C359.88104752 350.36789891 360.76092499 352.08017936 361.625 353.80029297 C362.25728516 355.02063232 362.25728516 355.02063232 362.90234375 356.265625 C363.45136353 357.35085449 363.45136353 357.35085449 364.01147461 358.45800781 C366.39117473 361.62141477 369.54389583 361.57966062 373.3125 362.1875 C375.3125 363.3125 375.3125 363.3125 376.3125 365.1875 C377.09131728 372.19685551 377.09131728 372.19685551 374.66625977 375.28149414 C371.65693937 377.71835383 369.99530929 377.70278243 366.15625 377.71875 C364.96902344 377.72390625 363.78179687 377.7290625 362.55859375 377.734375 C361.32238281 377.71890625 360.08617187 377.7034375 358.8125 377.6875 C357.57628906 377.70296875 356.34007812 377.7184375 355.06640625 377.734375 C353.87917969 377.72921875 352.69195312 377.7240625 351.46875 377.71875 C350.38400391 377.71423828 349.29925781 377.70972656 348.18164062 377.70507812 C344.67050048 377.07168661 343.48989911 375.95712067 341.3125 373.1875 C340.60367697 370.27965119 340.97278211 368.244961 341.3125 365.1875 C342.6875 363.1875 342.6875 363.1875 344.3125 362.1875 C344.9725 362.1875 345.6325 362.1875 346.3125 362.1875 C345.86261719 361.28773438 345.41273438 360.38796875 344.94921875 359.4609375 C344.64516113 358.8527417 344.34110352 358.2445459 344.02783203 357.61791992 C343.32724462 356.2169115 342.62638712 354.81603811 341.92529297 353.4152832 C339.83847702 349.24477929 337.75728805 345.07157664 335.68359375 340.89453125 C331.15615594 331.78608608 326.59001095 322.70055416 321.875 313.6875 C321.4742627 312.91688232 321.07352539 312.14626465 320.66064453 311.35229492 C318.42917872 307.11590089 316.04454687 303.12065176 313.3125 299.1875 C313.42319824 299.89318115 313.53389648 300.5988623 313.64794922 301.32592773 C316.72069156 321.26677852 318.37073306 341.04478963 319.3125 361.1875 C320.26125 361.455625 321.21 361.72375 322.1875 362 C325.3125 363.1875 325.3125 363.1875 327.3125 366.1875 C327.75 369.0625 327.75 369.0625 327.3125 372.1875 C324.73792086 375.4508223 323.23660393 377.00682855 319.10680103 377.81424582 C317.88415389 377.81505758 316.66150675 377.81586934 315.40180969 377.8167057 C314.37224838 377.82760651 314.37224838 377.82760651 313.32188785 377.83872753 C311.01652592 377.85700957 308.71282112 377.83960953 306.4074707 377.82241821 C304.74029088 377.8281782 303.07311739 377.83611849 301.40595722 377.84605443 C296.82049898 377.8669681 292.23555962 377.85659217 287.65009928 377.84112334 C282.70658724 377.8298322 277.7631658 377.84726142 272.81967163 377.86102295 C263.13373976 377.88328382 253.44800136 377.87844148 243.76206183 377.86395974 C235.89178358 377.85267871 228.02155964 377.85113168 220.15127563 377.85657883 C219.03215076 377.85734499 217.91302588 377.85811116 216.75998813 377.85890054 C214.48667644 377.86049913 212.21336476 377.86212019 209.94005311 377.8637635 C188.61127514 377.87802935 167.28260454 377.86161514 145.95384419 377.83476166 C127.64332933 377.81242215 109.33297294 377.81630204 91.02246094 377.83935547 C69.77124896 377.86609869 48.52013114 377.87665597 27.26890469 377.86129415 C25.00384459 377.85970136 22.73878449 377.85812951 20.47372437 377.85657883 C19.35920232 377.85580745 18.24468027 377.85503607 17.09638482 377.85424132 C9.23339254 377.84991989 1.37045986 377.85722042 -6.49252319 377.86897659 C-16.07180987 377.88298371 -25.65089163 377.8792393 -35.23015475 377.85257287 C-40.11991708 377.83941062 -45.00933746 377.83432327 -49.89909744 377.85081863 C-54.37248857 377.86568143 -58.84521974 377.85759105 -63.31855071 377.83093087 C-64.93960338 377.82533026 -66.56071144 377.82822166 -68.18172872 377.84030981 C-70.38088836 377.85545548 -72.57777017 377.83998873 -74.77680969 377.8167057 C-75.99945683 377.81589394 -77.22210398 377.81508218 -78.48180103 377.81424582 C-82.61033593 377.00707646 -84.10605016 375.44258261 -86.6875 372.1875 C-87.25 369.125 -87.25 369.125 -86.6875 366.1875 C-84.29231483 363.02243388 -82.48636362 361.9935614 -78.6875 361.1875 C-78.64786133 360.34493652 -78.60822266 359.50237305 -78.56738281 358.63427734 C-77.57204389 338.30131793 -75.7162932 318.32434565 -72.6875 298.1875 C-73.13851074 299.05193726 -73.13851074 299.05193726 -73.59863281 299.93383789 C-74.23816895 301.15961548 -74.23816895 301.15961548 -74.890625 302.41015625 C-75.61040527 303.78977539 -75.61040527 303.78977539 -76.34472656 305.19726562 C-77.41950763 307.25720775 -78.49437953 309.31710249 -79.56933594 311.37695312 C-82.33997971 316.68641458 -85.10932712 321.99654107 -87.875 327.30859375 C-88.89573949 329.26827805 -89.91657115 331.22791435 -90.9375 333.1875 C-91.43386963 334.14052002 -91.93023926 335.09354004 -92.44165039 336.07543945 C-95.99477693 342.88692776 -99.60365808 349.66620188 -103.26171875 356.421875 C-104.7650156 359.16398332 -104.7650156 359.16398332 -105.6875 362.1875 C-105.048125 362.496875 -104.40875 362.80625 -103.75 363.125 C-101.6875 364.1875 -101.6875 364.1875 -100.6875 365.1875 C-100.09394307 372.42889453 -100.09394307 372.42889453 -102.3293457 375.28588867 C-105.34202311 377.71530625 -107.0063639 377.70278939 -110.84375 377.71875 C-112.03097656 377.72390625 -113.21820313 377.7290625 -114.44140625 377.734375 C-115.67761719 377.71890625 -116.91382813 377.7034375 -118.1875 377.6875 C-119.42371094 377.70296875 -120.65992187 377.7184375 -121.93359375 377.734375 C-123.12082031 377.72921875 -124.30804688 377.7240625 -125.53125 377.71875 C-126.61599609 377.71423828 -127.70074219 377.70972656 -128.81835938 377.70507812 C-132.32948205 377.07168976 -133.50559963 375.95255285 -135.6875 373.1875 C-136.47006292 370.42424336 -136.34609723 367.9765161 -135.6875 365.1875 C-133.10934364 362.230203 -131.62749218 361.27365439 -127.70947266 360.91455078 C-124.54890739 360.48147963 -124.54890739 360.48147963 -122.91162109 357.96044922 C-122.43289551 356.98092285 -121.95416992 356.00139648 -121.4609375 354.9921875 C-120.91058838 353.89600098 -120.36023926 352.79981445 -119.79321289 351.67041016 C-119.21611213 350.4678677 -118.63921305 349.26522844 -118.0625 348.0625 C-117.44819004 346.82356002 -116.83154069 345.58577745 -116.21264648 344.34912109 C-114.954979 341.8315798 -113.70739434 339.30943699 -112.46728516 336.78320312 C-109.98561324 331.74547084 -107.36788474 326.78043016 -104.75 321.8125 C-100.24667049 313.19999557 -95.77564288 304.57087553 -91.3125 295.9375 C-90.67327181 294.70140911 -90.03403026 293.46532514 -89.39477539 292.22924805 C-86.30939839 286.26258285 -83.22682147 280.2944961 -80.1484375 274.32421875 C-73.68670517 261.80825072 -67.12207933 249.35527471 -60.43579102 236.95776367 C-56.41744675 229.48446225 -52.50628127 221.96389954 -48.65063477 214.40551758 C-37.38721445 192.32742284 -25.4472019 170.82644387 -10.53125 150.97265625 C-9.72977539 149.90543335 -9.72977539 149.90543335 -8.91210938 148.81665039 C-8.50798828 148.27903076 -8.10386719 147.74141113 -7.6875 147.1875 C-9.54713379 147.22677612 -9.54713379 147.22677612 -11.44433594 147.2668457 C-16.09600383 147.35815487 -20.7475945 147.41503954 -25.39990234 147.4621582 C-27.40361911 147.48712011 -29.40724655 147.52110222 -31.41064453 147.56469727 C-45.7743851 147.86916558 -57.9268548 147.73596073 -68.9375 137.20703125 C-76.43271437 128.55742002 -79.15428364 119.79791862 -78.93359375 108.46484375 C-78.21864757 98.9435763 -74.52638176 90.87806355 -67.6484375 84.2109375 C-59.82047342 77.71068464 -51.76183586 74.83745715 -41.6875 74.1875 C-42.23277344 73.97996094 -42.77804688 73.77242188 -43.33984375 73.55859375 C-54.07633326 69.17223308 -62.7166444 62.10507227 -67.97265625 51.625 C-72.69092251 39.98999217 -72.70765021 28.04143606 -68.6875 16.1875 C-62.40538677 3.41279036 -53.7229251 -3.58056634 -40.55859375 -8.62890625 C-26.00743155 -12.97299016 -12.06152418 -8.13451631 0 0 Z " fill="#010100" transform="translate(135.6875,88.8125)"/>
<path d="M0 0 C6.6 0 13.2 0 20 0 C20.99 2.31 21.98 4.62 23 7 C25.96910299 8.97940199 27.78636457 9.37044901 31.24072266 9.8347168 C68.20463654 14.86218118 103.56828425 41.00205154 125.86328125 70.12109375 C126.56839844 71.07113281 127.27351563 72.02117187 128 73 C128.45810059 73.60344238 128.91620117 74.20688477 129.38818359 74.82861328 C156.97362583 111.23646635 187 166.92051919 187 214 C151.69 214 116.38 214 80 214 C79.67 204.76 79.34 195.52 79 186 C76.15246419 166.63675651 68.40784238 149.64505685 53 137 C39.9084107 127.73151441 27.39768425 125.45615301 11.64892578 125.49902344 C9.13587733 125.49999579 6.62589134 125.45825537 4.11328125 125.4140625 C-12.62822178 125.28977916 -26.18254041 130.45958353 -38.625 142.0625 C-58.1926817 162.75234266 -59.05555228 185.66656848 -60 214 C-95.31 214 -130.62 214 -167 214 C-159.0517968 162.33667918 -139.18360428 113.28465886 -107 72 C-106.25105469 71.02417969 -105.50210938 70.04835938 -104.73046875 69.04296875 C-95.55074445 57.41077636 -84.79200713 46.95864986 -73 38 C-71.96875 37.20207031 -70.9375 36.40414062 -69.875 35.58203125 C-52.66583509 22.58151946 -33.80122428 14.4869102 -12.8125 9.89453125 C-6.32726514 8.56588711 -6.32726514 8.56588711 -1 5 C-0.67 3.35 -0.34 1.7 0 0 Z " fill="#FDD058" transform="translate(246,176)"/>
<path d="M0 0 C0.89203125 0.0095874 1.7840625 0.0191748 2.703125 0.02905273 C3.37859375 0.04137939 4.0540625 0.05370605 4.75 0.06640625 C4.75586624 0.86962814 4.76173248 1.67285004 4.76777649 2.50041199 C4.82573117 10.0778776 4.89782341 17.65501544 4.98571491 25.23218822 C5.03040223 29.12750865 5.06966173 33.02272489 5.09643555 36.91821289 C5.12248524 40.67908846 5.1628988 44.43956275 5.21318626 48.20018959 C5.22984384 49.63341586 5.24136505 51.06671153 5.24761391 52.50002098 C5.25726611 54.51078706 5.28703652 56.52142587 5.31762695 58.53198242 C5.33428154 60.24740486 5.33428154 60.24740486 5.35127258 61.9974823 C5.8327122 65.70302526 7.08726781 68.40367406 9.75 71.06640625 C13.91990664 71.49422298 13.91990664 71.49422298 17.5625 69.75390625 C20.03254503 66.24384226 19.89911863 62.9100732 19.95532227 58.7590332 C19.97526749 57.45791092 19.99521271 56.15678864 20.01576233 54.8162384 C20.03274546 53.39572265 20.04962431 51.97520565 20.06640625 50.5546875 C20.08698137 49.10165319 20.10797799 47.64862479 20.12937927 46.19560242 C20.18454234 42.37341095 20.23397698 38.55116599 20.28222656 34.72888184 C20.33248372 30.82766973 20.38814778 26.9265352 20.44335938 23.02539062 C20.55087041 15.37246156 20.65233098 7.71946792 20.75 0.06640625 C22.18277893 0.04244 23.61567457 0.02538836 25.04858398 0.01123047 C25.84650864 0.00098846 26.64443329 -0.00925354 27.46653748 -0.01980591 C37.72545721 0.36751974 46.99715379 8.02952871 53.8125 15.06640625 C67.32692744 30.97512202 68.21686082 49.49635087 68.04296875 69.34375 C68.0373586 71.25044924 68.03309523 73.15715288 68.03010559 75.06385803 C68.01876841 80.03026726 67.98939995 84.99640427 67.95599365 89.96270752 C67.91958887 95.94931159 67.90607852 101.93600777 67.88863373 107.92269135 C67.85975366 116.9707844 67.80218956 126.01828268 67.75 135.06640625 C51.91 135.06640625 36.07 135.06640625 19.75 135.06640625 C19.42 121.53640625 19.09 108.00640625 18.75 94.06640625 C10.65795938 92.53094302 10.65795938 92.53094302 6.75 94.06640625 C6.42 107.59640625 6.09 121.12640625 5.75 135.06640625 C-10.09 135.06640625 -25.93 135.06640625 -42.25 135.06640625 C-42.41043524 113.16699635 -42.41043524 113.16699635 -42.4453125 103.7578125 C-42.46912839 97.3633072 -42.4971559 90.96903324 -42.55175781 84.57470703 C-42.59554924 79.41346849 -42.61920677 74.25247841 -42.62950897 69.09106827 C-42.63684103 67.13209249 -42.65115699 65.17312871 -42.67292023 63.2142601 C-42.88222453 43.5756651 -39.67278149 27.15620382 -25.67578125 12.359375 C-18.29317372 5.38096821 -10.39266549 -0.1452922 0 0 Z " fill="#FBB65A" transform="translate(243.25,315.93359375)"/>
<path d="M0 0 C6.86974051 4.93372273 11.03790879 10.66704857 14.5 18.3125 C16.31606513 21.56628335 17.66684924 22.38673649 21 24 C24.14633084 24.42587936 24.14633084 24.42587936 27.4375 24.4375 C32.79484695 24.7394925 35.85512844 25.37323739 40 29 C40.886875 29.70125 41.77375 30.4025 42.6875 31.125 C43.450625 31.74375 44.21375 32.3625 45 33 C45.99 33.66 46.98 34.32 48 35 C47.030625 35.38929688 46.06125 35.77859375 45.0625 36.1796875 C25.0237744 44.44963775 4.44219074 57.46984236 -9.78962708 74.08995056 C-12.53640462 76.46352329 -13.86288814 76.51024465 -17.4519043 76.53344727 C-18.54371506 76.5492836 -19.63552582 76.56511993 -20.76042175 76.58143616 C-22.52450127 76.57399635 -22.52450127 76.57399635 -24.32421875 76.56640625 C-25.54019241 76.57260483 -26.75616608 76.57880341 -28.00898743 76.58518982 C-30.58370157 76.59229565 -33.15846159 76.58910081 -35.7331543 76.57641602 C-39.65565774 76.56261206 -43.57574721 76.59654139 -47.49804688 76.63476562 C-50.00260475 76.63571743 -52.50716559 76.63385471 -55.01171875 76.62890625 C-56.76061653 76.64879356 -56.76061653 76.64879356 -58.54484558 76.66908264 C-65.78610921 76.5871416 -71.22008487 75.56490123 -77 71 C-82.535711 64.94303266 -83.48728432 59.34563164 -83.3984375 51.3671875 C-82.66376272 45.15846537 -79.75795332 41.39022621 -75.125 37.375 C-69.26392723 33.46761815 -63.27375612 33.47511312 -56.453125 33.53125 C-52.02946354 32.8506867 -50.67429786 31.53319645 -48 28 C-46.95491787 25.21610244 -46.95491787 25.21610244 -46.5 22.25 C-44.19487729 11.91494435 -39.62316866 5.22622008 -31 -1 C-21.99426095 -6.61445657 -8.6947311 -5.69018116 0 0 Z " fill="#77A3E9" transform="translate(156,145)"/>
<path d="M0 0 C36.3 0 72.6 0 110 0 C110 15.18 110 30.36 110 46 C72.71 46 35.42 46 -3 46 C-3 29 -3 29 0 0 Z " fill="#56BA97" transform="translate(76,405)"/>
<path d="M0 0 C36.3 0 72.6 0 110 0 C112.26704545 19.26988636 112.26704545 19.26988636 112.625 25.8125 C112.73714844 27.74029297 112.73714844 27.74029297 112.8515625 29.70703125 C113.03924485 35.13500245 113 40.56878503 113 46 C75.71 46 38.42 46 0 46 C0 30.82 0 15.64 0 0 Z " fill="#54B795" transform="translate(326,405)"/>
<path d="M0 0 C10.93070816 2.18614163 18.71771596 8.84214194 25.015625 17.8984375 C28.79260824 24.07174203 31.31180342 29.99064964 33 37 C33.18037811 37.65193329 33.36075623 38.30386658 33.54660034 38.97555542 C35.76078276 48.02277636 35.24918687 57.32404187 35.1953125 66.5703125 C35.19157659 68.4617396 35.18873235 70.35316865 35.18673706 72.24459839 C35.17914606 77.19292663 35.1595371 82.14113516 35.1373291 87.0894165 C35.1167724 92.15074037 35.10771444 97.21208381 35.09765625 102.2734375 C35.07628643 112.18235239 35.04114183 122.09114745 35 132 C23.45 132 11.9 132 0 132 C0 88.44 0 44.88 0 0 Z " fill="#FBB65A" transform="translate(276,318)"/>
<path d="M0 0 C0 0.66 0 1.32 0 2 C-0.99 2 -1.98 2 -3 2 C-3.33 2.99 -3.66 3.98 -4 5 C-6.23046875 6.62109375 -6.23046875 6.62109375 -9.1875 8.4375 C-41.90224194 29.69240334 -66.52728746 63.93859141 -82.97119141 98.8359375 C-84.05324671 101.11200258 -85.17300357 103.36737372 -86.29296875 105.625 C-100.05097759 133.94949797 -107.88078081 164.25009962 -114 195 C-118.29 195 -122.58 195 -127 195 C-120.50778635 143.71151219 -98.67472879 93.6318808 -67 53 C-65.87658203 51.53626953 -65.87658203 51.53626953 -64.73046875 50.04296875 C-55.55256274 38.41308043 -44.79425717 27.95187387 -33 19 C-32.4853418 18.60361328 -31.97068359 18.20722656 -31.44042969 17.79882812 C-8.18533054 0 -8.18533054 0 0 0 Z " fill="#F7B459" transform="translate(206,195)"/>
<path d="M0 0 C7.24288189 3.44743777 11.81616559 8.21584347 15.9765625 15.05078125 C17.07162742 18.335976 17.07616858 20.7874154 17.0390625 24.23828125 C17.03003906 25.32496094 17.02101562 26.41164063 17.01171875 27.53125 C17.00011719 28.36269531 16.98851562 29.19414063 16.9765625 30.05078125 C16.22632813 30.26992187 15.47609375 30.4890625 14.703125 30.71484375 C1.6645871 34.75449151 -7.94957597 40.93996263 -16.0234375 52.05078125 C-22.43248968 51.88644658 -26.57470816 48.31308765 -31.0234375 44.05078125 C-32.80289302 41.74297199 -33.79578017 39.75162739 -35.0234375 37.05078125 C-35.4359375 36.16390625 -35.8484375 35.27703125 -36.2734375 34.36328125 C-38.14382255 26.10241393 -37.8693662 18.75292049 -33.64453125 11.30859375 C-25.59956182 0.10379295 -13.34767493 -4.1905491 0 0 Z " fill="#FCCF58" transform="translate(117.0234375,95.94921875)"/>
<path d="M0 0 C1.43739513 -0.02712066 2.87493863 -0.04645067 4.3125 -0.0625 C5.51326172 -0.07990234 5.51326172 -0.07990234 6.73828125 -0.09765625 C9 0 9 0 12 1 C12 44.89 12 88.78 12 134 C23.55 134 35.1 134 47 134 C47 134.33 47 134.66 47 135 C31.16 135 15.32 135 -1 135 C-1.33 121.47 -1.66 107.94 -2 94 C-3.98 93.34 -5.96 92.68 -8 92 C-8.14510162 88.72963272 -8.23399373 85.46008993 -8.3125 82.1875 C-8.35439453 81.25873047 -8.39628906 80.32996094 -8.43945312 79.37304688 C-8.48545 76.82481997 -8.48106886 74.50399534 -8 72 C-5.60546875 70.11328125 -5.60546875 70.11328125 -3 69 C-0.69982984 65.64251684 -0.72757064 62.57107501 -0.68115234 58.57910156 C-0.66128265 57.27805481 -0.64141296 55.97700806 -0.62094116 54.63653564 C-0.60906559 53.22123382 -0.59740268 51.8059302 -0.5859375 50.390625 C-0.56722203 48.93901472 -0.54764833 47.48741527 -0.5272522 46.03582764 C-0.47596478 42.22188713 -0.43632108 38.40791138 -0.39910889 34.59381104 C-0.35904788 30.69917096 -0.30796513 26.80467713 -0.2578125 22.91015625 C-0.16109341 15.2735379 -0.07667595 7.63684869 0 0 Z " fill="#E89736" transform="translate(264,316)"/>
<path d="M0 0 C-1.051875 0.5878125 -1.051875 0.5878125 -2.125 1.1875 C-14.66847572 9.09534339 -21.81667913 22.31047904 -25.55297852 36.43896484 C-27.6646 45.79923074 -27.48077429 55.1845242 -27.51171875 64.73828125 C-27.52859632 66.71511426 -27.54675061 68.69193675 -27.56611633 70.66874695 C-27.61328851 75.82901721 -27.6433088 80.98924476 -27.66955566 86.1496582 C-27.69952802 91.43254019 -27.74600037 96.71527545 -27.79101562 101.99804688 C-27.87667515 112.33197068 -27.94265687 122.66588024 -28 133 C-16.78 133 -5.56 133 6 133 C6 121.12 6 109.24 6 97 C6.33 97 6.66 97 7 97 C7 109.21 7 121.42 7 134 C-8.84 134 -24.68 134 -41 134 C-41.16043524 112.1005901 -41.16043524 112.1005901 -41.1953125 102.69140625 C-41.21912839 96.29690095 -41.2471559 89.90262699 -41.30175781 83.50830078 C-41.34554924 78.34706224 -41.36920677 73.18607216 -41.37950897 68.02466202 C-41.38684103 66.06568624 -41.40115699 64.10672246 -41.42292023 62.14785385 C-41.63222453 42.50925885 -38.42278149 26.08979757 -24.42578125 11.29296875 C-18.35857128 5.55794097 -8.896798 -2.82189188 0 0 Z " fill="#E59636" transform="translate(242,317)"/>
<path d="M0 0 C36.3 0 72.6 0 110 0 C110 0.33 110 0.66 110 1 C77.99 1 45.98 1 13 1 C12.67 6.94 12.34 12.88 12 19 C11.34 27.58 10.68 36.16 10 45 C43 45 76 45 110 45 C110 45.33 110 45.66 110 46 C72.71 46 35.42 46 -3 46 C-3 29 -3 29 0 0 Z " fill="#4C9980" transform="translate(76,405)"/>
<path d="M0 0 C-0.886875 0.928125 -1.77375 1.85625 -2.6875 2.8125 C-10.44331555 12.07894946 -12.22171009 21.29551454 -11.24804688 33.06152344 C-10.31656698 40.34100217 -6.95440789 45.77034723 -2 51 C-4 53 -4 53 -6.5625 53.0625 C-12.72621785 51.15735085 -18.11491444 47.02491917 -21.4375 41.4375 C-21.953125 40.303125 -22.46875 39.16875 -23 38 C-23.4125 37.113125 -23.825 36.22625 -24.25 35.3125 C-26.12038505 27.05163268 -25.8459287 19.70213924 -21.62109375 12.2578125 C-16.41950372 5.01318831 -9.21496132 -0.65821152 0 0 Z " fill="#F7B359" transform="translate(105,95)"/>
<path d="M0 0 C0 0.33 0 0.66 0 1 C-0.59167969 0.99097656 -1.18335937 0.98195312 -1.79296875 0.97265625 C-6.5782552 1.11315085 -6.5782552 1.11315085 -10.640625 3.37890625 C-15.60534563 10.06333432 -17.00663229 17.83778878 -16 26 C-14.51432358 31.10106634 -12.63120541 36.04743461 -9 40 C-6.65246128 40.61521594 -6.65246128 40.61521594 -3.9777832 40.54589844 C-2.95695145 40.56561707 -1.93611969 40.58533569 -0.88435364 40.60565186 C0.76576469 40.60749481 0.76576469 40.60749481 2.44921875 40.609375 C4.14084892 40.63417938 4.14084892 40.63417938 5.86665344 40.65948486 C9.4736568 40.70812458 13.0802381 40.729372 16.6875 40.75 C19.13088079 40.77814619 21.57424179 40.8080717 24.01757812 40.83984375 C30.01164171 40.91388781 36.00558582 40.96543658 42 41 C42 41.33 42 41.66 42 42 C34.1897123 42.1272297 26.37969386 42.21453219 18.56860352 42.2746582 C15.91348435 42.29690216 13.25972732 42.33379633 10.60473633 42.37719727 C6.77928705 42.43814632 2.95475409 42.46628003 -0.87109375 42.48828125 C-2.04957382 42.51408768 -3.22805389 42.5398941 -4.44224548 42.56648254 C-11.74591117 42.56894422 -17.17887729 41.62605942 -23 37 C-28.53425763 30.94068496 -29.48730265 25.34727819 -29.3984375 17.3671875 C-28.6608425 11.13378661 -25.73211121 7.37453428 -21.08984375 3.33984375 C-14.54525131 -1.05176127 -7.61340748 -0.48734472 0 0 Z " fill="#5C8CD4" transform="translate(102,179)"/>
<path d="M0 0 C2.4375 1.5625 2.4375 1.5625 4 4 C4.6875 7.25 4.6875 7.25 4 11 C2.00616428 14.03180314 -0.40043988 16.48183511 -3 19 C-3.58652344 19.60714844 -4.17304688 20.21429688 -4.77734375 20.83984375 C-7.80954928 23.76203729 -9.43867372 24.90485995 -13.6875 25.625 C-17 25 -17 25 -19.4375 23.4375 C-21.70159958 19.90550465 -21.7587407 18.13858566 -21 14 C-19.00616428 10.96819686 -16.59956012 8.51816489 -14 6 C-13.41347656 5.39285156 -12.82695312 4.78570312 -12.22265625 4.16015625 C-8.30586242 0.38546832 -5.63619029 -1.06343213 0 0 Z " fill="#000000" transform="translate(159,66)"/>
<path d="M0 0 C2.6652701 1.71916168 4.72022002 3.87560065 6.875 6.1875 C7.74511719 7.0547168 7.74511719 7.0547168 8.6328125 7.93945312 C11.67767182 11.08746773 13.85626546 13.41646517 14 18 C12.93600927 21.81263347 12.3748349 22.75011007 9 25 C5.9375 25.6875 5.9375 25.6875 2 25 C-3.48693336 21.10849803 -9.17075467 16.19739452 -12 10 C-12 6.1936779 -11.84618784 4.00891627 -9.375 1.0625 C-5.95079325 -0.46938197 -3.73718795 -0.44784484 0 0 Z " fill="#000000" transform="translate(63,66)"/>
<path d="M0 0 C2.44988842 2.44988842 2.7658669 3.56604793 3 7 C0.89787752 13.60667065 -5.22558124 19.69732288 -11.09375 23.27734375 C-13.99975557 24.3790057 -16.05395863 23.81486251 -19 23 C-21.59191186 21.30185085 -21.96408796 20.1179967 -22.875 17.125 C-23.06711649 12.32208787 -20.77597986 9.8757302 -17.66015625 6.359375 C-16.80292969 5.49828125 -15.94570313 4.6371875 -15.0625 3.75 C-14.20785156 2.87859375 -13.35320313 2.0071875 -12.47265625 1.109375 C-7.96644904 -2.73478281 -5.35831549 -2.21321727 0 0 Z " fill="#000000" transform="translate(74,154)"/>
<path d="M0 0 C2.88578936 2.05221091 4.72079039 3.66484106 5.46459961 7.22167969 C5.6374497 9.85269948 5.63280559 12.42699038 5.5625 15.0625 C5.57345703 15.96033203 5.58441406 16.85816406 5.59570312 17.78320312 C5.52355612 24.25238438 5.52355612 24.25238438 3.18359375 27.59375 C-0.01474619 29.65350381 -2.27895364 29.46513079 -6 29 C-9.1850357 27.23984869 -9.83296972 26.50109084 -11 23 C-11.14854388 20.19480593 -11.23104204 17.43077873 -11.25 14.625 C-11.270625 13.86960937 -11.29125 13.11421875 -11.3125 12.3359375 C-11.34473434 7.72642635 -10.98163536 4.74875514 -8 1 C-5.11138291 -0.44430855 -3.20352299 -0.37688506 0 0 Z " fill="#000000" transform="translate(110,46)"/>
<path d="M0 0 C0.90234375 -0.01998047 1.8046875 -0.03996094 2.734375 -0.06054688 C9.33503608 -0.05566473 9.33503608 -0.05566473 12.5703125 2.34375 C14.0715754 4.54232081 14.83901931 5.7813187 15 8.4375 C14.23394506 11.57832526 13.48969951 13.04760591 10.94921875 15.0703125 C7.00820733 16.89727144 3.72365114 16.84197749 -0.5625 16.75 C-1.31724609 16.75322266 -2.07199219 16.75644531 -2.84960938 16.75976562 C-9.8739832 16.69168799 -9.8739832 16.69168799 -13 14.4375 C-14.71171078 11.50313867 -15.0111846 9.71711498 -14.875 6.3125 C-12.67815886 -0.90569233 -6.34067188 -0.04981956 0 0 Z " fill="#000000" transform="translate(46,113.5625)"/>
<path d="M0 0 C-0.70125 0.45375 -1.4025 0.9075 -2.125 1.375 C-8.853541 7.51845048 -11.76154836 15.37232548 -14 24 C-14.65629516 26.00342734 -15.31760646 28.00531118 -16 30 C-19.96 30 -23.92 30 -28 30 C-27.51414617 19.95902081 -24.1469403 12.25817293 -16.69140625 5.3984375 C-12.06270651 1.57147559 -6.09032106 -2.34243118 0 0 Z " fill="#5B8DD6" transform="translate(137,142)"/>
<path d="M0 0 C4.62 0 9.24 0 14 0 C14 0.33 14 0.66 14 1 C9.38 1.66 4.76 2.32 0 3 C0 2.01 0 1.02 0 0 Z " fill="#FCB75B" transform="translate(246,177)"/>
</svg>
